  0
SECTION
  2
HEADER
  9
$ACADVER
  1
AC1015
  9
$ACADMAINTVER
 70
     6
  9
$DWGCODEPAGE
  3
ANSI_1252
  9
$INSBASE
 10
0.0
 20
0.0
 30
0.0
  9
$EXTMIN
 10
0.0
 20
0.0
 30
0.0
  9
$EXTMAX
 10
1397.0
 20
1079.5
 30
0.0
  9
$LIMMIN
 10
0.0
 20
0.0
  9
$LIMMAX
 10
1397.0
 20
1079.5
  9
$ORTHOMODE
 70
     0
  9
$REGENMODE
 70
     1
  9
$FILLMODE
 70
     1
  9
$QTEXTMODE
 70
     0
  9
$MIRRTEXT
 70
     1
  9
$LTSCALE
 40
5.0
  9
$ATTMODE
 70
     1
  9
$TEXTSIZE
 40
31.75
  9
$TRACEWID
 40
1.0
  9
$TEXTSTYLE
  7
Standard
  9
$CLAYER
  8
0
  9
$CELTYPE
  6
ByLayer
  9
$CECOLOR
 62
   256
  9
$CELTSCALE
 40
1.0
  9
$DISPSILH
 70
     0
  9
$DIMSCALE
 40
1.0
  9
$DIMASZ
 40
29.972
  9
$DIMEXO
 40
4.953
  9
$DIMDLI
 40
3.75
  9
$DIMRND
 40
0.0
  9
$DIMDLE
 40
0.0
  9
$DIMEXE
 40
4.953
  9
$DIMTP
 40
0.0
  9
$DIMTM
 40
0.0
  9
$DIMTXT
 40
31.75
  9
$DIMCEN
 40
2.5
  9
$DIMTSZ
 40
0.0
  9
$DIMTOL
 70
     0
  9
$DIMLIM
 70
     0
  9
$DIMTIH
 70
     1
  9
$DIMTOH
 70
     1
  9
$DIMSE1
 70
     0
  9
$DIMSE2
 70
     0
  9
$DIMTAD
 70
     1
  9
$DIMZIN
 70
     0
  9
$DIMBLK
  1

  9
$DIMASO
 70
     1
  9
$DIMSHO
 70
     1
  9
$DIMPOST
  1

  9
$DIMAPOST
  1

  9
$DIMALT
 70
     0
  9
$DIMALTD
 70
     3
  9
$DIMALTF
 40
0.0393700787
  9
$DIMLFAC
 40
1.0
  9
$DIMTOFL
 70
     1
  9
$DIMTVP
 40
0.0
  9
$DIMTIX
 70
     0
  9
$DIMSOXD
 70
     0
  9
$DIMSAH
 70
     0
  9
$DIMBLK1
  1

  9
$DIMBLK2
  1

  9
$DIMSTYLE
  2
ISO-25
  9
$DIMCLRD
 70
     0
  9
$DIMCLRE
 70
     0
  9
$DIMCLRT
 70
     0
  9
$DIMTFAC
 40
1.0
  9
$DIMGAP
 40
7.62
  9
$DIMJUST
 70
     0
  9
$DIMSD1
 70
     0
  9
$DIMSD2
 70
     0
  9
$DIMTOLJ
 70
     0
  9
$DIMTZIN
 70
     0
  9
$DIMALTZ
 70
     0
  9
$DIMALTTZ
 70
     0
  9
$DIMUPT
 70
     0
  9
$DIMDEC
 70
     2
  9
$DIMTDEC
 70
     2
  9
$DIMALTU
 70
     2
  9
$DIMALTTD
 70
     3
  9
$DIMTXSTY
  7
Standard
  9
$DIMAUNIT
 70
     0
  9
$DIMADEC
 70
     2
  9
$DIMALTRND
 40
0.0
  9
$DIMAZIN
 70
     0
  9
$DIMDSEP
 70
    44
  9
$DIMATFIT
 70
     3
  9
$DIMFRAC
 70
     0
  9
$DIMLDRBLK
  1

  9
$DIMLUNIT
 70
     2
  9
$DIMLWD
 70
    -2
  9
$DIMLWE
 70
    -2
  9
$DIMTMOVE
 70
     0
  9
$LUNITS
 70
     2
  9
$LUPREC
 70
     2
  9
$SKETCHINC
 40
1.0
  9
$FILLETRAD
 40
10.0
  9
$AUNITS
 70
     0
  9
$AUPREC
 70
     2
  9
$MENU
  1
.
  9
$ELEVATION
 40
0.0
  9
$PELEVATION
 40
0.0
  9
$THICKNESS
 40
0.0
  9
$LIMCHECK
 70
     0
  9
$CHAMFERA
 40
10.0
  9
$CHAMFERB
 40
10.0
  9
$CHAMFERC
 40
20.0
  9
$CHAMFERD
 40
0.0
  9
$SKPOLY
 70
     0
  9
$TDCREATE
 40
2455553.684153982
  9
$TDUCREATE
 40
2455553.892487315
  9
$TDUPDATE
 40
2455553.684153993
  9
$TDUUPDATE
 40
2455553.892487326
  9
$TDINDWG
 40
0.0000000116
  9
$TDUSRTIMER
 40
0.0000000116
  9
$USRTIMER
 70
     1
  9
$ANGBASE
 50
0.0
  9
$ANGDIR
 70
     0
  9
$PDMODE
 70
     0
  9
$PDSIZE
 40
-1.0
  9
$PLINEWID
 40
0.0
  9
$SPLFRAME
 70
     0
  9
$SPLINETYPE
 70
     6
  9
$SPLINESEGS
 70
     8
  9
$HANDSEED
  5
145
  9
$SURFTAB1
 70
     6
  9
$SURFTAB2
 70
     6
  9
$SURFTYPE
 70
     6
  9
$SURFU
 70
     6
  9
$SURFV
 70
     6
  9
$UCSBASE
  2

  9
$UCSNAME
  2

  9
$UCSORG
 10
0.0
 20
0.0
 30
0.0
  9
$UCSXDIR
 10
1.0
 20
0.0
 30
0.0
  9
$UCSYDIR
 10
0.0
 20
1.0
 30
0.0
  9
$UCSORTHOREF
  2

  9
$UCSORTHOVIEW
 70
     0
  9
$UCSORGTOP
 10
0.0
 20
0.0
 30
0.0
  9
$UCSORGBOTTOM
 10
0.0
 20
0.0
 30
0.0
  9
$UCSORGLEFT
 10
0.0
 20
0.0
 30
0.0
  9
$UCSORGRIGHT
 10
0.0
 20
0.0
 30
0.0
  9
$UCSORGFRONT
 10
0.0
 20
0.0
 30
0.0
  9
$UCSORGBACK
 10
0.0
 20
0.0
 30
0.0
  9
$PUCSBASE
  2

  9
$PUCSNAME
  2

  9
$PUCSORG
 10
0.0
 20
0.0
 30
0.0
  9
$PUCSXDIR
 10
1.0
 20
0.0
 30
0.0
  9
$PUCSYDIR
 10
0.0
 20
1.0
 30
0.0
  9
$PUCSORTHOREF
  2

  9
$PUCSORTHOVIEW
 70
     0
  9
$PUCSORGTOP
 10
0.0
 20
0.0
 30
0.0
  9
$PUCSORGBOTTOM
 10
0.0
 20
0.0
 30
0.0
  9
$PUCSORGLEFT
 10
0.0
 20
0.0
 30
0.0
  9
$PUCSORGRIGHT
 10
0.0
 20
0.0
 30
0.0
  9
$PUCSORGFRONT
 10
0.0
 20
0.0
 30
0.0
  9
$PUCSORGBACK
 10
0.0
 20
0.0
 30
0.0
  9
$USERI1
 70
     0
  9
$USERI2
 70
     0
  9
$USERI3
 70
     0
  9
$USERI4
 70
     0
  9
$USERI5
 70
     0
  9
$USERR1
 40
0.0
  9
$USERR2
 40
0.0
  9
$USERR3
 40
0.0
  9
$USERR4
 40
0.0
  9
$USERR5
 40
0.0
  9
$WORLDVIEW
 70
     1
  9
$SHADEDGE
 70
     3
  9
$SHADEDIF
 70
    70
  9
$TILEMODE
 70
     1
  9
$MAXACTVP
 70
    64
  9
$PINSBASE
 10
0.0
 20
0.0
 30
0.0
  9
$PLIMCHECK
 70
     0
  9
$PEXTMIN
 10
1.0000000000E+20
 20
1.0000000000E+20
 30
1.0000000000E+20
  9
$PEXTMAX
 10
-1.0000000000E+20
 20
-1.0000000000E+20
 30
-1.0000000000E+20
  9
$PLIMMIN
 10
0.0
 20
0.0
  9
$PLIMMAX
 10
420.0
 20
297.0
  9
$UNITMODE
 70
     0
  9
$VISRETAIN
 70
     1
  9
$PLINEGEN
 70
     0
  9
$PSLTSCALE
 70
     1
  9
$TREEDEPTH
 70
  3020
  9
$CMLSTYLE
  2
Standard
  9
$CMLJUST
 70
     0
  9
$CMLSCALE
 40
20.0
  9
$PROXYGRAPHICS
 70
     1
  9
$MEASUREMENT
 70
     1
  9
$CELWEIGHT
370
    -1
  9
$ENDCAPS
280
     0
  9
$JOINSTYLE
280
     0
  9
$LWDISPLAY
290
     1
  9
$INSUNITS
 70
     4
  9
$HYPERLINKBASE
  1

  9
$STYLESHEET
  1

  9
$XEDIT
290
     1
  9
$CEPSNTYPE
380
     0
  9
$PSTYLEMODE
290
     1
  9
$FINGERPRINTGUID
  2
{17B0C38D-224B-46D4-B177-A653681AB657}
  9
$VERSIONGUID
  2
{FAEB1C32-E019-11D5-929B-00C0DF256EC4}
  9
$EXTNAMES
290
     1
  9
$PSVPSCALE
 40
0.0
  9
$OLESTARTUP
290
     0
  0
ENDSEC
  0
SECTION
  2
CLASSES
  0
CLASS
  1
ACDBDICTIONARYWDFLT
  2
AcDbDictionaryWithDefault
  3
ObjectDBX Classes
 90
        0
280
     0
281
     0
  0
CLASS
  1
VISUALSTYLE
  2
AcDbVisualStyle
  3
ObjectDBX Classes
 90
     4095
280
     0
281
     0
  0
CLASS
  1
SCALE
  2
AcDbScale
  3
ObjectDBX Classes
 90
     1153
280
     0
281
     0
  0
CLASS
  1
DICTIONARYVAR
  2
AcDbDictionaryVar
  3
ObjectDBX Classes
 90
        0
280
     0
281
     0
  0
CLASS
  1
ACDBPLACEHOLDER
  2
AcDbPlaceHolder
  3
ObjectDBX Classes
 90
        0
280
     0
281
     0
  0
CLASS
  1
LAYOUT
  2
AcDbLayout
  3
ObjectDBX Classes
 90
        0
280
     0
281
     0
  0
ENDSEC
  0
SECTION
  2
TABLES
  0
TABLE
  2
VPORT
  5
8
330
0
100
AcDbSymbolTable
 70
     1
  0
VPORT
  5
29
330
8
100
AcDbSymbolTableRecord
100
AcDbViewportTableRecord
  2
*Active
 70
     0
 10
0.0
 20
0.0
 11
1.0
 21
1.0
 12
698.5
 22
539.75
 13
0.0
 23
0.0
 14
10.0
 24
10.0
 15
10.0
 25
10.0
 16
0.0
 26
0.0
 36
1.0
 17
0.0
 27
0.0
 37
0.0
 40
1079.5
 41
1.2941176471
 42
50.0
 43
0.0
 44
0.0
 50
0.0
 51
0.0
 71
     0
 72
  2000
 73
     1
 74
     3
 75
     0
 76
     0
 77
     0
 78
     0
281
     0
 65
     1
110
0.0
120
0.0
130
0.0
111
1.0
121
0.0
131
0.0
112
0.0
122
1.0
132
0.0
 79
     0
146
0.0
  0
ENDTAB
  0
TABLE
  2
LTYPE
  5
5
330
0
100
AcDbSymbolTable
 70
     6
  0
LTYPE
  5
14
330
5
100
AcDbSymbolTableRecord
100
AcDbLinetypeTableRecord
  2
ByBlock
 70
     0
  3

 72
    65
 73
     0
 40
0.0
  0
LTYPE
  5
15
330
5
100
AcDbSymbolTableRecord
100
AcDbLinetypeTableRecord
  2
ByLayer
 70
     0
  3

 72
    65
 73
     0
 40
0.0
  0
LTYPE
  5
16
330
5
100
AcDbSymbolTableRecord
100
AcDbLinetypeTableRecord
  2
Continuous
 70
     0
  3
Solid line
 72
    65
 73
     0
 40
0.0
  0
LTYPE
  5
3B
330
5
100
AcDbSymbolTableRecord
100
AcDbLinetypeTableRecord
  2
HIDDEN
 70
     0
  3
Hidden __ __ __ __ __ __ __ __ __ __ __ __ __ __
 72
    65
 73
     2
 40
1.905
 49
1.27
 74
     0
 49
-0.635
 74
     0
  0
LTYPE
  5
3C
330
5
100
AcDbSymbolTableRecord
100
AcDbLinetypeTableRecord
  2
PHANTOM
 70
     0
  3
Phantom ______  __  __  ______  __  __  ______
 72
    65
 73
     6
 40
12.7
 49
6.35
 74
     0
 49
-1.27
 74
     0
 49
1.27
 74
     0
 49
-1.27
 74
     0
 49
1.27
 74
     0
 49
-1.27
 74
     0
  0
LTYPE
  5
3D
330
5
100
AcDbSymbolTableRecord
100
AcDbLinetypeTableRecord
  2
CENTER
 70
     0
  3
Center ____ _ ____ _ ____ _ ____ _ ____ _ ____
 72
    65
 73
     4
 40
10.16
 49
6.35
 74
     0
 49
-1.27
 74
     0
 49
1.27
 74
     0
 49
-1.27
 74
     0
  0
LTYPE
  5
3E
330
5
100
AcDbSymbolTableRecord
100
AcDbLinetypeTableRecord
  2
CENTERX2
 70
     0
  3
Center (2x) ________  __  ________  __  _____
 72
    65
 73
     4
 40
20.32
 49
12.7
 74
     0
 49
-2.54
 74
     0
 49
2.54
 74
     0
 49
-2.54
 74
     0
  0
LTYPE
  5
3F
330
5
100
AcDbSymbolTableRecord
100
AcDbLinetypeTableRecord
  2
DOT2
 70
     0
  3
Dot (.5x) ........................................
 72
    65
 73
     2
 40
0.635
 49
0.0
 74
     0
 49
-0.635
 74
     0
  0
ENDTAB
  0
TABLE
  2
LAYER
  5
2
330
0
100
AcDbSymbolTable
 70
     2
  0
LAYER
  5
10
330
2
100
AcDbSymbolTableRecord
100
AcDbLayerTableRecord
  2
0
 70
     0
 62
     7
  6
Continuous
370
    -3
390
F
  0
LAYER
  5
40
330
2
100
AcDbSymbolTableRecord
100
AcDbLayerTableRecord
  2
FORMAT
 70
     0
 62
     7
  6
Continuous
370
    -3
390
F
  0
ENDTAB
  0
TABLE
  2
STYLE
  5
3
330
0
100
AcDbSymbolTable
 70
     5
  0
STYLE
  5
11
330
3
100
AcDbSymbolTableRecord
100
AcDbTextStyleTableRecord
  2
Standard
 70
     0
 40
0.0
 41
1.0
 50
0.0
 71
     0
 42
2.5
  3
txt
  4

  0
STYLE
  5
67
330
3
100
AcDbSymbolTableRecord
100
AcDbTextStyleTableRecord
  2
SLDTEXTSTYLE0
 70
     0
 40
0.0
 41
0.75
 50
0.0
 71
     0
 42
0.2
  3
TXT
  4

  0
STYLE
  5
8D
330
3
100
AcDbSymbolTableRecord
100
AcDbTextStyleTableRecord
  2
SLDTEXTSTYLE1
 70
     0
 40
0.0
 41
0.6944444444
 50
0.0
 71
     0
 42
0.2
  3
TXT
  4

  0
STYLE
  5
95
330
3
100
AcDbSymbolTableRecord
100
AcDbTextStyleTableRecord
  2
SLDTEXTSTYLE2
 70
     0
 40
0.0
 41
0.6847826087
 50
0.0
 71
     0
 42
0.2
  3
TXT
  4

  0
STYLE
  5
B1
330
3
100
AcDbSymbolTableRecord
100
AcDbTextStyleTableRecord
  2
SLDTEXTSTYLE3
 70
     0
 40
0.0
 41
0.6875
 50
0.0
 71
     0
 42
0.2
  3
TXT
  4

  0
ENDTAB
  0
TABLE
  2
VIEW
  5
6
330
0
100
AcDbSymbolTable
 70
     0
  0
ENDTAB
  0
TABLE
  2
UCS
  5
7
330
0
100
AcDbSymbolTable
 70
     0
  0
ENDTAB
  0
TABLE
  2
APPID
  5
9
330
0
100
AcDbSymbolTable
 70
     1
  0
APPID
  5
12
330
9
100
AcDbSymbolTableRecord
100
AcDbRegAppTableRecord
  2
ACAD
 70
     0
  0
ENDTAB
  0
TABLE
  2
DIMSTYLE
  5
A
330
0
100
AcDbSymbolTable
 70
     1
100
AcDbDimStyleTable
  0
DIMSTYLE
105
27
330
A
100
AcDbSymbolTableRecord
100
AcDbDimStyleTableRecord
  2
ISO-25
 70
     0
 41
2.5
 42
0.625
 43
3.75
 44
1.25
 73
     0
 74
     0
 77
     1
 78
     8
140
2.5
141
2.5
143
0.0393700787
147
0.625
171
     3
172
     1
271
     2
272
     2
274
     3
278
    44
283
     0
284
     8
340
11
  0
ENDTAB
  0
TABLE
  2
BLOCK_RECORD
  5
1
330
0
100
AcDbSymbolTable
 70
     3
  0
BLOCK_RECORD
  5
1F
330
1
100
AcDbSymbolTableRecord
100
AcDbBlockTableRecord
  2
*Model_Space
340
22
  0
BLOCK_RECORD
  5
1B
330
1
100
AcDbSymbolTableRecord
100
AcDbBlockTableRecord
  2
*Paper_Space
340
1E
  0
BLOCK_RECORD
  5
23
330
1
100
AcDbSymbolTableRecord
100
AcDbBlockTableRecord
  2
*Paper_Space0
340
26
  0
BLOCK_RECORD
  5
9A
330
1
100
AcDbSymbolTableRecord
100
AcDbBlockTableRecord
  2
SW_NOTE_0
340
0
102
{BLKREFS
331
A9
102
}
  0
BLOCK_RECORD
  5
B5
330
1
100
AcDbSymbolTableRecord
100
AcDbBlockTableRecord
  2
SW_NOTE_1
340
0
102
{BLKREFS
331
BF
102
}
  0
ENDTAB
  0
ENDSEC
  0
SECTION
  2
BLOCKS
  0
BLOCK
  5
20
330
1F
100
AcDbEntity
  8
0
100
AcDbBlockBegin
  2
*Model_Space
 70
     0
 10
0.0
 20
0.0
 30
0.0
  3
*Model_Space
  1

  0
ENDBLK
  5
21
330
1F
100
AcDbEntity
  8
0
100
AcDbBlockEnd
  0
BLOCK
  5
1C
330
1B
100
AcDbEntity
 67
     1
  8
0
100
AcDbBlockBegin
  2
*Paper_Space
 70
     0
 10
0.0
 20
0.0
 30
0.0
  3
*Paper_Space
  1

  0
ENDBLK
  5
1D
330
1B
100
AcDbEntity
 67
     1
  8
0
100
AcDbBlockEnd
  0
BLOCK
  5
24
330
23
100
AcDbEntity
  8
0
100
AcDbBlockBegin
  2
*Paper_Space0
 70
     0
 10
0.0
 20
0.0
 30
0.0
  3
*Paper_Space0
  1

  0
ENDBLK
  5
25
330
23
100
AcDbEntity
  8
0
100
AcDbBlockEnd
  0
BLOCK
  5
9B
330
9A
100
AcDbEntity
  8
0
100
AcDbBlockBegin
  2
SW_NOTE_0
 70
     0
 10
0.0
 20
0.0
 30
0.0
  3
SW_NOTE_0
  1

  0
MTEXT
  5
9D
330
9A
100
AcDbEntity
  8
0
  6
Continuous
 62
     0
 48
5.0
370
     0
100
AcDbMText
 10
0.0
 20
10.2319751844
 30
0.0
 40
7.9375
 41
0.0
 71
     1
 72
     1
  1
DIMENSIONS ARE IN INCHES
  7
SLDTEXTSTYLE0
 73
     1
 44
1.0
  0
MTEXT
  5
9E
330
9A
100
AcDbEntity
  8
0
  6
Continuous
 62
     0
 48
5.0
370
     0
100
AcDbMText
 10
0.0
 20
-2.7055249571
 30
0.0
 40
7.9375
 41
0.0
 71
     1
 72
     1
  1
TOLERANCES:
  7
SLDTEXTSTYLE0
 73
     1
 44
1.0
  0
MTEXT
  5
9F
330
9A
100
AcDbEntity
  8
0
  6
Continuous
 62
     0
 48
5.0
370
     0
100
AcDbMText
 10
0.0
 20
-15.6430250987
 30
0.0
 40
7.9375
 41
0.0
 71
     1
 72
     1
  1
FRACTIONAL
  7
SLDTEXTSTYLE0
 73
     1
 44
1.0
  0
MTEXT
  5
A0
330
9A
100
AcDbEntity
  8
0
  6
Continuous
 62
     0
 48
5.0
370
     0
100
AcDbMText
 10
63.205100596
 20
-15.6430250987
 30
0.0
 40
7.9375
 41
0.0
 71
     1
 72
     1
  1
%%p
  7
SLDTEXTSTYLE0
 73
     1
 44
1.0
  0
MTEXT
  5
A1
330
9A
100
AcDbEntity
  8
0
  6
Continuous
 62
     0
 48
5.0
370
     0
100
AcDbMText
 10
0.0
 20
-28.5805252402
 30
0.0
 40
7.9375
 41
0.0
 71
     1
 72
     1
  1
ANGULAR: MACH
  7
SLDTEXTSTYLE0
 73
     1
 44
1.0
  0
MTEXT
  5
A2
330
9A
100
AcDbEntity
  8
0
  6
Continuous
 62
     0
 48
5.0
370
     0
100
AcDbMText
 10
88.3350055665
 20
-28.5805252402
 30
0.0
 40
7.9375
 41
0.0
 71
     1
 72
     1
  1
%%p
  7
SLDTEXTSTYLE0
 73
     1
 44
1.0
  0
MTEXT
  5
A3
330
9A
100
AcDbEntity
  8
0
  6
Continuous
 62
     0
 48
5.0
370
     0
100
AcDbMText
 10
95.895472914
 20
-28.5805252402
 30
0.0
 40
7.9375
 41
0.0
 71
     1
 72
     1
  1
     BEND 
  7
SLDTEXTSTYLE0
 73
     1
 44
1.0
  0
MTEXT
  5
A4
330
9A
100
AcDbEntity
  8
0
  6
Continuous
 62
     0
 48
5.0
370
     0
100
AcDbMText
 10
140.1690859348
 20
-28.5805252402
 30
0.0
 40
7.9375
 41
0.0
 71
     1
 72
     1
  1
%%p
  7
SLDTEXTSTYLE0
 73
     1
 44
1.0
  0
MTEXT
  5
A5
330
9A
100
AcDbEntity
  8
0
  6
Continuous
 62
     0
 48
5.0
370
     0
100
AcDbMText
 10
0.0
 20
-41.5180253818
 30
0.0
 40
7.9375
 41
0.0
 71
     1
 72
     1
  1
TWO PLACE DECIMAL    
  7
SLDTEXTSTYLE0
 73
     1
 44
1.0
  0
MTEXT
  5
A6
330
9A
100
AcDbEntity
  8
0
  6
Continuous
 62
     0
 48
5.0
370
     0
100
AcDbMText
 10
119.6040678769
 20
-41.5180253818
 30
0.0
 40
7.9375
 41
0.0
 71
     1
 72
     1
  1
%%p
  7
SLDTEXTSTYLE0
 73
     1
 44
1.0
  0
MTEXT
  5
A7
330
9A
100
AcDbEntity
  8
0
  6
Continuous
 62
     0
 48
5.0
370
     0
100
AcDbMText
 10
0.0
 20
-54.4555255234
 30
0.0
 40
7.9375
 41
0.0
 71
     1
 72
     1
  1
THREE PLACE DECIMAL  
  7
SLDTEXTSTYLE0
 73
     1
 44
1.0
  0
MTEXT
  5
A8
330
9A
100
AcDbEntity
  8
0
  6
Continuous
 62
     0
 48
5.0
370
     0
100
AcDbMText
 10
118.916425854
 20
-54.4555255234
 30
0.0
 40
7.9375
 41
0.0
 71
     1
 72
     1
  1
%%p
  7
SLDTEXTSTYLE0
 73
     1
 44
1.0
  0
ENDBLK
  5
9C
330
9A
100
AcDbEntity
  8
0
100
AcDbBlockEnd
  0
BLOCK
  5
B6
330
B5
100
AcDbEntity
  8
0
100
AcDbBlockBegin
  2
SW_NOTE_1
 70
     0
 10
0.0
 20
0.0
 30
0.0
  3
SW_NOTE_1
  1

  0
MTEXT
  5
B8
330
B5
100
AcDbEntity
  8
0
  6
Continuous
 62
     0
 48
5.0
370
     0
100
AcDbMText
 10
0.0
 20
9.8226961771
 30
0.0
 40
7.62
 41
0.0
 71
     1
 72
     1
  1
THE INFORMATION CONTAINED IN THIS
  7
SLDTEXTSTYLE0
 73
     1
 44
1.0
  0
MTEXT
  5
B9
330
B5
100
AcDbEntity
  8
0
  6
Continuous
 62
     0
 48
5.0
370
     0
100
AcDbMText
 10
0.0
 20
-2.7973032931
 30
0.0
 40
7.62
 41
0.0
 71
     1
 72
     1
  1
DRAWING IS THE SOLE PROPERTY OF
  7
SLDTEXTSTYLE0
 73
     1
 44
1.0
  0
MTEXT
  5
BA
330
B5
100
AcDbEntity
  8
0
  6
Continuous
 62
     0
 48
5.0
370
     0
100
AcDbMText
 10
0.0
 20
-15.4173027633
 30
0.0
 40
7.62
 41
0.0
 71
     1
 72
     1
  1
<INSERT COMPANY NAME HERE>.  ANY 
  7
SLDTEXTSTYLE0
 73
     1
 44
1.0
  0
MTEXT
  5
BB
330
B5
100
AcDbEntity
  8
0
  6
Continuous
 62
     0
 48
5.0
370
     0
100
AcDbMText
 10
0.0
 20
-28.0373022335
 30
0.0
 40
7.62
 41
0.0
 71
     1
 72
     1
  1
REPRODUCTION IN PART OR AS A WHOLE
  7
SLDTEXTSTYLE0
 73
     1
 44
1.0
  0
MTEXT
  5
BC
330
B5
100
AcDbEntity
  8
0
  6
Continuous
 62
     0
 48
5.0
370
     0
100
AcDbMText
 10
0.0
 20
-40.6573017037
 30
0.0
 40
7.62
 41
0.0
 71
     1
 72
     1
  1
WITHOUT THE WRITTEN PERMISSION OF
  7
SLDTEXTSTYLE0
 73
     1
 44
1.0
  0
MTEXT
  5
BD
330
B5
100
AcDbEntity
  8
0
  6
Continuous
 62
     0
 48
5.0
370
     0
100
AcDbMText
 10
0.0
 20
-53.2773011739
 30
0.0
 40
7.62
 41
0.0
 71
     1
 72
     1
  1
<INSERT COMPANY NAME HERE> IS 
  7
SLDTEXTSTYLE0
 73
     1
 44
1.0
  0
MTEXT
  5
BE
330
B5
100
AcDbEntity
  8
0
  6
Continuous
 62
     0
 48
5.0
370
     0
100
AcDbMText
 10
0.0
 20
-65.8973006441
 30
0.0
 40
7.62
 41
0.0
 71
     1
 72
     1
  1
PROHIBITED.
  7
SLDTEXTSTYLE0
 73
     1
 44
1.0
  0
ENDBLK
  5
B7
330
B5
100
AcDbEntity
  8
0
100
AcDbBlockEnd
  0
ENDSEC
  0
SECTION
  2
ENTITIES
  0
LINE
  5
41
330
1F
100
AcDbEntity
  8
0
  6
Continuous
 62
     8
 48
5.0
370
     0
100
AcDbLine
 10
41.900729
 20
1040.3932926829
 30
0.0
 11
1350.000729
 21
1040.3932926829
 31
0.0
  0
LINE
  5
42
330
1F
100
AcDbEntity
  8
0
  6
Continuous
 62
     8
 48
5.0
370
     0
100
AcDbLine
 10
41.900729
 20
1040.3932926829
 30
0.0
 11
41.900729
 21
49.7932926829
 31
0.0
  0
LINE
  5
43
330
1F
100
AcDbEntity
  8
0
  6
Continuous
 62
     8
 48
5.0
370
     0
100
AcDbLine
 10
1350.000729
 20
49.7932926829
 30
0.0
 11
41.900729
 21
49.7932926829
 31
0.0
  0
LINE
  5
44
330
1F
100
AcDbEntity
  8
0
  6
Continuous
 62
     8
 48
5.0
370
     0
100
AcDbLine
 10
1350.000729
 20
49.7932926829
 30
0.0
 11
1350.000729
 21
1040.3932926829
 31
0.0
  0
LINE
  5
45
330
1F
100
AcDbEntity
  8
0
  6
Continuous
 62
     8
 48
5.0
370
     0
100
AcDbLine
 10
715.000729
 20
49.7932926829
 30
0.0
 11
715.000729
 21
240.2932926829
 31
0.0
  0
LINE
  5
46
330
1F
100
AcDbEntity
  8
0
  6
Continuous
 62
     8
 48
5.0
370
     0
100
AcDbLine
 10
715.000729
 20
240.2932926829
 30
0.0
 11
1350.000729
 21
240.2932926829
 31
0.0
  0
LINE
  5
47
330
1F
100
AcDbEntity
  8
0
  6
Continuous
 62
     8
 48
5.0
370
     0
100
AcDbLine
 10
882.2582899096
 20
240.2932926829
 30
0.0
 11
882.2582899096
 21
49.7932926829
 31
0.0
  0
LINE
  5
48
330
1F
100
AcDbEntity
  8
0
  6
Continuous
 62
     8
 48
5.0
370
     0
100
AcDbLine
 10
1055.5701518242
 20
240.2932926829
 30
0.0
 11
1055.5701518242
 21
49.7932926829
 31
0.0
  0
LINE
  5
49
330
1F
100
AcDbEntity
  8
0
  6
Continuous
 62
     8
 48
5.0
370
     0
100
AcDbLine
 10
1055.5701518242
 20
65.6682926829
 30
0.0
 11
1350.000729
 21
65.6682926829
 31
0.0
  0
LINE
  5
4A
330
1F
100
AcDbEntity
  8
0
  6
Continuous
 62
     8
 48
5.0
370
     0
100
AcDbLine
 10
1055.5701518242
 20
97.4182926829
 30
0.0
 11
1350.000729
 21
97.4182926829
 31
0.0
  0
LINE
  5
4B
330
1F
100
AcDbEntity
  8
0
  6
Continuous
 62
     8
 48
5.0
370
     0
100
AcDbLine
 10
882.2582899096
 20
125.9932926829
 30
0.0
 11
1055.5701518242
 21
125.9932926829
 31
0.0
  0
LINE
  5
4C
330
1F
100
AcDbEntity
  8
0
  6
Continuous
 62
     8
 48
5.0
370
     0
100
AcDbLine
 10
1081.0601797474
 20
97.4182926829
 30
0.0
 11
1081.0601797474
 21
65.6682926829
 31
0.0
  0
LINE
  5
4D
330
1F
100
AcDbEntity
  8
0
  6
Continuous
 62
     8
 48
5.0
370
     0
100
AcDbLine
 10
1263.4691273131
 20
65.6682926829
 30
0.0
 11
1263.4691273131
 21
49.7932926829
 31
0.0
  0
LINE
  5
4E
330
1F
100
AcDbEntity
  8
0
  6
Continuous
 62
     8
 48
5.0
370
     0
100
AcDbLine
 10
1317.8476437573
 20
97.4182926829
 30
0.0
 11
1317.8476437573
 21
65.6682926829
 31
0.0
  0
LINE
  5
4F
330
1F
100
AcDbEntity
  8
0
  6
Continuous
 62
     8
 48
5.0
370
     0
100
AcDbLine
 10
1114.950366505
 20
65.6682926829
 30
0.0
 11
1114.950366505
 21
49.7932926829
 31
0.0
  0
LINE
  5
50
330
1F
100
AcDbEntity
  8
0
  6
Continuous
 62
     8
 48
5.0
370
     0
100
AcDbLine
 10
996.8829749858
 20
240.2932926829
 30
0.0
 11
996.8829749858
 21
125.9932926829
 31
0.0
  0
LINE
  5
51
330
1F
100
AcDbEntity
  8
0
  6
Continuous
 62
     8
 48
5.0
370
     0
100
AcDbLine
 10
715.000729
 20
78.6792560764
 30
0.0
 11
882.2582899096
 21
78.6792560764
 31
0.0
  0
LINE
  5
52
330
1F
100
AcDbEntity
  8
0
  6
Continuous
 62
     8
 48
5.0
370
     0
100
AcDbLine
 10
882.2582899096
 20
221.2432926829
 30
0.0
 11
1055.5701518242
 21
221.2432926829
 31
0.0
  0
LINE
  5
53
330
1F
100
AcDbEntity
  8
0
  6
Continuous
 62
     8
 48
5.0
370
     0
100
AcDbLine
 10
936.4256361685
 20
240.2932926829
 30
0.0
 11
936.4256361685
 21
125.9932926829
 31
0.0
  0
LINE
  5
54
330
1F
100
AcDbEntity
  8
0
  6
Continuous
 62
     8
 48
5.0
370
     0
100
AcDbLine
 10
715.000729
 20
110.4292560764
 30
0.0
 11
882.2582899096
 21
110.4292560764
 31
0.0
  0
LINE
  5
55
330
1F
100
AcDbEntity
  8
0
  6
Continuous
 62
     8
 48
5.0
370
     0
100
AcDbLine
 10
882.2582899096
 20
141.5688789191
 30
0.0
 11
715.000729
 21
141.5688789191
 31
0.0
  0
LINE
  5
56
330
1F
100
AcDbEntity
  8
0
  6
Continuous
 62
     8
 48
5.0
370
     0
100
AcDbLine
 10
583.8747244898
 20
49.7932926829
 30
0.0
 11
583.8747244898
 21
240.2932926829
 31
0.0
  0
LINE
  5
57
330
1F
100
AcDbEntity
  8
0
  6
Continuous
 62
     8
 48
5.0
370
     0
100
AcDbLine
 10
583.8747244898
 20
240.2932926829
 30
0.0
 11
715.000729
 21
240.2932926829
 31
0.0
  0
LINE
  5
58
330
1F
100
AcDbEntity
  8
0
  6
Continuous
 62
     8
 48
5.0
370
     0
100
AcDbLine
 10
715.000729
 20
78.6792560764
 30
0.0
 11
583.8747244898
 21
78.6792560764
 31
0.0
  0
LINE
  5
59
330
1F
100
AcDbEntity
  8
0
  6
Continuous
 62
     8
 48
5.0
370
     0
100
AcDbLine
 10
583.8747244898
 20
164.0932926829
 30
0.0
 11
377.1991647545
 21
164.0932926829
 31
0.0
  0
LINE
  5
5A
330
1F
100
AcDbEntity
  8
0
  6
Continuous
 62
     8
 48
5.0
370
     0
100
AcDbLine
 10
377.1991647545
 20
164.0932926829
 30
0.0
 11
377.1991647545
 21
49.7932926829
 31
0.0
  0
LINE
  5
5B
330
1F
100
AcDbEntity
  8
0
  6
Continuous
 62
     8
 48
5.0
370
     0
100
AcDbLine
 10
650.1344344898
 20
240.2932926829
 30
0.0
 11
650.1344344898
 21
78.6792560764
 31
0.0
  0
LINE
  5
5C
330
1F
100
AcDbEntity
  8
0
  6
Continuous
 62
     8
 48
5.0
370
     0
100
AcDbLine
 10
882.2582899096
 20
202.1932926829
 30
0.0
 11
1350.000729
 21
202.1932926829
 31
0.0
  0
LINE
  5
5D
330
1F
100
AcDbEntity
  8
0
  6
Continuous
 62
     8
 48
5.0
370
     0
100
AcDbLine
 10
882.2582899096
 20
183.1432926829
 30
0.0
 11
1055.5701518242
 21
183.1432926829
 31
0.0
  0
LINE
  5
5E
330
1F
100
AcDbEntity
  8
0
  6
Continuous
 62
     8
 48
5.0
370
     0
100
AcDbLine
 10
882.2582899096
 20
164.0932926829
 30
0.0
 11
1055.5701518242
 21
164.0932926829
 31
0.0
  0
LINE
  5
5F
330
1F
100
AcDbEntity
  8
0
  6
Continuous
 62
     8
 48
5.0
370
     0
100
AcDbLine
 10
882.2582899096
 20
145.0432926829
 30
0.0
 11
1055.5701518242
 21
145.0432926829
 31
0.0
  0
LINE
  5
60
330
1F
100
AcDbEntity
  8
0
  6
Continuous
 62
     8
 48
5.0
370
     0
100
AcDbLine
 10
583.8747244898
 20
221.2432926829
 30
0.0
 11
715.000729
 21
221.2432926829
 31
0.0
  0
LINE
  5
61
330
1F
100
AcDbEntity
  8
0
  6
Continuous
 62
     8
 48
5.0
370
     0
100
AcDbLine
 10
583.8747244898
 20
202.1932926829
 30
0.0
 11
715.000729
 21
202.1932926829
 31
0.0
  0
LINE
  5
62
330
1F
100
AcDbEntity
  8
0
  6
Continuous
 62
     8
 48
5.0
370
     0
100
AcDbLine
 10
583.8747244898
 20
183.1432926829
 30
0.0
 11
715.000729
 21
183.1432926829
 31
0.0
  0
LINE
  5
63
330
1F
100
AcDbEntity
  8
0
  6
Continuous
 62
     8
 48
5.0
370
     0
100
AcDbLine
 10
583.8747244898
 20
164.0932926829
 30
0.0
 11
715.000729
 21
164.0932926829
 31
0.0
  0
LINE
  5
64
330
1F
100
AcDbEntity
  8
0
  6
Continuous
 62
     8
 48
5.0
370
     0
100
AcDbLine
 10
583.8747244898
 20
145.0432926829
 30
0.0
 11
715.000729
 21
145.0432926829
 31
0.0
  0
LINE
  5
65
330
1F
100
AcDbEntity
  8
0
  6
Continuous
 62
     8
 48
5.0
370
     0
100
AcDbLine
 10
583.8747244898
 20
125.9932926829
 30
0.0
 11
715.000729
 21
125.9932926829
 31
0.0
  0
LINE
  5
66
330
1F
100
AcDbEntity
  8
0
  6
Continuous
 62
     8
 48
5.0
370
     0
100
AcDbLine
 10
583.8747244898
 20
106.9432926829
 30
0.0
 11
715.000729
 21
106.9432926829
 31
0.0
  0
MTEXT
  5
8A
330
1F
100
AcDbEntity
  8
0
  6
Continuous
 62
     8
 48
5.0
370
     0
100
AcDbMText
 10
1076.1273532627
 20
232.6939046102
 30
0.0
 40
19.84375
 41
0.0
 71
     1
 72
     1
  1
<COMPANY NAME>
  7
SLDTEXTSTYLE0
 73
     1
 44
1.0
  0
MTEXT
  5
8B
330
1F
100
AcDbEntity
  8
0
  6
Continuous
 62
     8
 48
5.0
370
     0
100
AcDbMText
 10
1058.8966882934
 20
61.4388969399
 30
0.0
 40
6.6145833333
 41
0.0
 71
     1
 72
     1
  1
SCALE:1:5
  7
SLDTEXTSTYLE0
 73
     1
 44
1.0
  0
MTEXT
  5
8C
330
1F
100
AcDbEntity
  8
0
  6
Continuous
 62
     8
 48
5.0
370
     0
100
AcDbMText
 10
1059.5117481834
 20
94.7390580575
 30
0.0
 40
6.6145833333
 41
0.0
 71
     1
 72
     1
  1
SIZE
  7
SLDTEXTSTYLE0
 73
     1
 44
1.0
  0
MTEXT
  5
8E
330
1F
100
AcDbEntity
  8
0
  6
Continuous
 62
     8
 48
5.0
370
     0
100
AcDbMText
 10
1084.2684892697
 20
94.2195299371
 30
0.0
 40
6.6145833333
 41
0.0
 71
     1
 72
     1
  1
DWG.  NO.
  7
SLDTEXTSTYLE1
 73
     1
 44
1.0
  0
MTEXT
  5
8F
330
1F
100
AcDbEntity
  8
0
  6
Continuous
 62
     8
 48
5.0
370
     0
100
AcDbMText
 10
1061.9526259754
 20
84.9799812355
 30
0.0
 40
12.7
 41
0.0
 71
     1
 72
     1
  1
A
  7
SLDTEXTSTYLE0
 73
     1
 44
1.0
  0
MTEXT
  5
90
330
1F
100
AcDbEntity
  8
0
  6
Continuous
 62
     8
 48
5.0
370
     0
100
AcDbMText
 10
1323.0228922859
 20
93.8266214533
 30
0.0
 40
6.6145833333
 41
0.0
 71
     1
 72
     1
  1
REV.
  7
SLDTEXTSTYLE0
 73
     1
 44
1.0
  0
MTEXT
  5
91
330
1F
100
AcDbEntity
  8
0
  6
Continuous
 62
     8
 48
5.0
370
     0
100
AcDbMText
 10
720.6881486533
 20
137.3462260203
 30
0.0
 40
6.6145833333
 41
0.0
 71
     1
 72
     1
  1
MATERIAL
  7
SLDTEXTSTYLE0
 73
     1
 44
1.0
  0
MTEXT
  5
92
330
1F
100
AcDbEntity
  8
0
  6
Continuous
 62
     8
 48
5.0
370
     0
100
AcDbMText
 10
720.5398141399
 20
104.951582648
 30
0.0
 40
6.6145833333
 41
0.0
 71
     1
 72
     1
  1
FINISH
  7
SLDTEXTSTYLE0
 73
     1
 44
1.0
  0
MTEXT
  5
93
330
1F
100
AcDbEntity
  8
0
  6
Continuous
 62
     8
 48
5.0
370
     0
100
AcDbMText
 10
792.4718969399
 20
134.0705945118
 30
0.0
 40
11.90625
 41
0.0
 71
     1
 72
     1
  1
--
  7
SLDTEXTSTYLE0
 73
     1
 44
1.0
  0
MTEXT
  5
94
330
1F
100
AcDbEntity
  8
0
  6
Continuous
 62
     8
 48
5.0
370
     0
100
AcDbMText
 10
792.1504680345
 20
101.8860735316
 30
0.0
 40
11.90625
 41
0.0
 71
     1
 72
     1
  1
--
  7
SLDTEXTSTYLE0
 73
     1
 44
1.0
  0
MTEXT
  5
96
330
1F
100
AcDbEntity
  8
0
  6
Continuous
 62
     8
 48
5.0
370
     0
100
AcDbMText
 10
730.6705793128
 20
68.2647780485
 30
0.0
 40
7.9375
 41
0.0
 71
     1
 72
     1
  1
DO  NOT  SCALE  DRAWING
  7
SLDTEXTSTYLE2
 73
     1
 44
1.0
  0
MTEXT
  5
97
330
1F
100
AcDbEntity
  8
0
  6
Continuous
 62
     8
 48
5.0
370
     0
100
AcDbMText
 10
615.6865377916
 20
67.2118324016
 30
0.0
 40
7.9375
 41
0.0
 71
     1
 72
     1
  1
APPLICATION
  7
SLDTEXTSTYLE0
 73
     1
 44
1.0
  0
MTEXT
  5
98
330
1F
100
AcDbEntity
  8
0
  6
Continuous
 62
     8
 48
5.0
370
     0
100
AcDbMText
 10
660.0110442797
 20
98.0386996447
 30
0.0
 40
7.9375
 41
0.0
 71
     1
 72
     1
  1
USED ON
  7
SLDTEXTSTYLE0
 73
     1
 44
1.0
  0
MTEXT
  5
99
330
1F
100
AcDbEntity
  8
0
  6
Continuous
 62
     8
 48
5.0
370
     0
100
AcDbMText
 10
591.6635010912
 20
97.7708835497
 30
0.0
 40
7.9375
 41
0.0
 71
     1
 72
     1
  1
NEXT ASSY
  7
SLDTEXTSTYLE0
 73
     1
 44
1.0
  0
INSERT
  5
A9
330
1F
100
AcDbEntity
  8
0
  6
Continuous
 62
     8
 48
5.0
370
     0
100
AcDbBlockReference
  2
SW_NOTE_0
 10
721.5615103928
 20
220.194288026
 30
0.0
  0
MTEXT
  5
AA
330
1F
100
AcDbEntity
  8
0
  6
Continuous
 62
     8
 48
5.0
370
     0
100
AcDbMText
 10
953.9151772668
 20
234.5556304384
 30
0.0
 40
6.6145833333
 41
0.0
 71
     1
 72
     1
  1
NAME
  7
SLDTEXTSTYLE0
 73
     1
 44
1.0
  0
MTEXT
  5
AB
330
1F
100
AcDbEntity
  8
0
  6
Continuous
 62
     8
 48
5.0
370
     0
100
AcDbMText
 10
1015.0567967583
 20
234.2984481895
 30
0.0
 40
6.6145833333
 41
0.0
 71
     1
 72
     1
  1
DATE
  7
SLDTEXTSTYLE0
 73
     1
 44
1.0
  0
MTEXT
  5
AC
330
1F
100
AcDbEntity
  8
0
  6
Continuous
 62
     8
 48
5.0
370
     0
100
AcDbMText
 10
886.4221449233
 20
215.8310439944
 30
0.0
 40
6.6145833333
 41
0.0
 71
     1
 72
     1
  1
DRAWN
  7
SLDTEXTSTYLE0
 73
     1
 44
1.0
  0
MTEXT
  5
AD
330
1F
100
AcDbEntity
  8
0
  6
Continuous
 62
     8
 48
5.0
370
     0
100
AcDbMText
 10
886.7262556808
 20
195.5413899272
 30
0.0
 40
6.6145833333
 41
0.0
 71
     1
 72
     1
  1
CHECKED
  7
SLDTEXTSTYLE0
 73
     1
 44
1.0
  0
MTEXT
  5
AE
330
1F
100
AcDbEntity
  8
0
  6
Continuous
 62
     8
 48
5.0
370
     0
100
AcDbMText
 10
886.7914539536
 20
177.4574710636
 30
0.0
 40
6.6145833333
 41
0.0
 71
     1
 72
     1
  1
ENG APPR.
  7
SLDTEXTSTYLE0
 73
     1
 44
1.0
  0
MTEXT
  5
AF
330
1F
100
AcDbEntity
  8
0
  6
Continuous
 62
     8
 48
5.0
370
     0
100
AcDbMText
 10
886.8494231242
 20
158.5437253753
 30
0.0
 40
6.6145833333
 41
0.0
 71
     1
 72
     1
  1
MFG APPR.
  7
SLDTEXTSTYLE0
 73
     1
 44
1.0
  0
MTEXT
  5
B0
330
1F
100
AcDbEntity
  8
0
  6
Continuous
 62
     8
 48
5.0
370
     0
100
AcDbMText
 10
887.341706298
 20
139.8324170077
 30
0.0
 40
6.6145833333
 41
0.0
 71
     1
 72
     1
  1
Q.A.
  7
SLDTEXTSTYLE0
 73
     1
 44
1.0
  0
MTEXT
  5
B2
330
1F
100
AcDbEntity
  8
0
  6
Continuous
 62
     8
 48
5.0
370
     0
100
AcDbMText
 10
1266.03547542
 20
61.4661572389
 30
0.0
 40
6.35
 41
0.0
 71
     1
 72
     1
  1
SHEET 1 OF 1
  7
SLDTEXTSTYLE3
 73
     1
 44
1.0
  0
MTEXT
  5
B3
330
1F
100
AcDbEntity
  8
0
  6
Continuous
 62
     8
 48
5.0
370
     0
100
AcDbMText
 10
1118.7385601833
 20
60.9923940481
 30
0.0
 40
6.6145833333
 41
0.0
 71
     1
 72
     1
  1
WEIGHT:
  7
SLDTEXTSTYLE0
 73
     1
 44
1.0
  0
MTEXT
  5
B4
330
1F
100
AcDbEntity
  8
0
  6
Continuous
 62
     8
 48
5.0
370
     0
100
AcDbMText
 10
887.6479096958
 20
122.184112144
 30
0.0
 40
6.6145833333
 41
0.0
 71
     1
 72
     1
  1
COMMENTS:
  7
SLDTEXTSTYLE0
 73
     1
 44
1.0
  0
INSERT
  5
BF
330
1F
100
AcDbEntity
  8
0
  6
Continuous
 62
     8
 48
5.0
370
     0
100
AcDbBlockReference
  2
SW_NOTE_1
 10
382.0272307065
 20
131.6940258326
 30
0.0
  0
MTEXT
  5
C0
330
1F
100
AcDbEntity
  8
0
  6
Continuous
 62
     8
 48
5.0
370
     0
100
AcDbMText
 10
401.0096394801
 20
156.8596827315
 30
0.0
 40
7.62
 41
0.0
 71
     1
 72
     1
  1
PROPRIETARY AND CONFIDENTIAL
  7
SLDTEXTSTYLE0
 73
     1
 44
1.0
  0
LINE
  5
C1
330
1F
100
AcDbEntity
  8
0
  6
Continuous
 62
     7
 48
5.0
370
    15
100
AcDbLine
 10
584.3197995992
 20
831.5126152305
 30
0.0
 11
584.3197995992
 21
844.5126152305
 31
0.0
  0
LINE
  5
C2
330
1F
100
AcDbEntity
  8
0
  6
Continuous
 62
     7
 48
5.0
370
    15
100
AcDbLine
 10
587.3197995992
 20
831.5126152305
 30
0.0
 11
584.3197995992
 21
831.5126152305
 31
0.0
  0
LINE
  5
C3
330
1F
100
AcDbEntity
  8
0
  6
Continuous
 62
     7
 48
5.0
370
    15
100
AcDbLine
 10
587.3197995992
 20
821.5126152305
 30
0.0
 11
587.3197995992
 21
831.5126152305
 31
0.0
  0
LINE
  5
C4
330
1F
100
AcDbEntity
  8
0
  6
Continuous
 62
     7
 48
5.0
370
    15
100
AcDbLine
 10
584.3197995992
 20
821.5126152305
 30
0.0
 11
587.3197995992
 21
821.5126152305
 31
0.0
  0
LINE
  5
C5
330
1F
100
AcDbEntity
  8
0
  6
Continuous
 62
     7
 48
5.0
370
    15
100
AcDbLine
 10
584.3197995992
 20
811.5126152305
 30
0.0
 11
584.3197995992
 21
821.5126152305
 31
0.0
  0
LINE
  5
C6
330
1F
100
AcDbEntity
  8
0
  6
Continuous
 62
     7
 48
5.0
370
    15
100
AcDbLine
 10
587.3197995992
 20
811.5126152305
 30
0.0
 11
584.3197995992
 21
811.5126152305
 31
0.0
  0
LINE
  5
C7
330
1F
100
AcDbEntity
  8
0
  6
Continuous
 62
     7
 48
5.0
370
    15
100
AcDbLine
 10
587.3197995992
 20
801.5126152305
 30
0.0
 11
587.3197995992
 21
811.5126152305
 31
0.0
  0
LINE
  5
C8
330
1F
100
AcDbEntity
  8
0
  6
Continuous
 62
     7
 48
5.0
370
    15
100
AcDbLine
 10
584.3197995992
 20
801.5126152305
 30
0.0
 11
587.3197995992
 21
801.5126152305
 31
0.0
  0
LINE
  5
C9
330
1F
100
AcDbEntity
  8
0
  6
Continuous
 62
     7
 48
5.0
370
    15
100
AcDbLine
 10
584.3197995992
 20
791.5126152305
 30
0.0
 11
584.3197995992
 21
801.5126152305
 31
0.0
  0
LINE
  5
CA
330
1F
100
AcDbEntity
  8
0
  6
Continuous
 62
     7
 48
5.0
370
    15
100
AcDbLine
 10
587.3197995992
 20
791.5126152305
 30
0.0
 11
584.3197995992
 21
791.5126152305
 31
0.0
  0
LINE
  5
CB
330
1F
100
AcDbEntity
  8
0
  6
Continuous
 62
     7
 48
5.0
370
    15
100
AcDbLine
 10
587.3197995992
 20
781.5126152305
 30
0.0
 11
587.3197995992
 21
791.5126152305
 31
0.0
  0
LINE
  5
CC
330
1F
100
AcDbEntity
  8
0
  6
Continuous
 62
     7
 48
5.0
370
    15
100
AcDbLine
 10
584.3197995992
 20
781.5126152305
 30
0.0
 11
587.3197995992
 21
781.5126152305
 31
0.0
  0
LINE
  5
CD
330
1F
100
AcDbEntity
  8
0
  6
Continuous
 62
     7
 48
5.0
370
    15
100
AcDbLine
 10
584.3197995992
 20
771.5126152305
 30
0.0
 11
584.3197995992
 21
781.5126152305
 31
0.0
  0
LINE
  5
CE
330
1F
100
AcDbEntity
  8
0
  6
Continuous
 62
     7
 48
5.0
370
    15
100
AcDbLine
 10
587.3197995992
 20
771.5126152305
 30
0.0
 11
584.3197995992
 21
771.5126152305
 31
0.0
  0
LINE
  5
CF
330
1F
100
AcDbEntity
  8
0
  6
Continuous
 62
     7
 48
5.0
370
    15
100
AcDbLine
 10
587.3197995992
 20
761.5126152305
 30
0.0
 11
587.3197995992
 21
771.5126152305
 31
0.0
  0
LINE
  5
D0
330
1F
100
AcDbEntity
  8
0
  6
Continuous
 62
     7
 48
5.0
370
    15
100
AcDbLine
 10
584.3197995992
 20
761.5126152305
 30
0.0
 11
587.3197995992
 21
761.5126152305
 31
0.0
  0
LINE
  5
D1
330
1F
100
AcDbEntity
  8
0
  6
Continuous
 62
     7
 48
5.0
370
    15
100
AcDbLine
 10
584.3197995992
 20
751.5126152305
 30
0.0
 11
584.3197995992
 21
761.5126152305
 31
0.0
  0
LINE
  5
D2
330
1F
100
AcDbEntity
  8
0
  6
Continuous
 62
     7
 48
5.0
370
    15
100
AcDbLine
 10
587.3197995992
 20
751.5126152305
 30
0.0
 11
584.3197995992
 21
751.5126152305
 31
0.0
  0
LINE
  5
D3
330
1F
100
AcDbEntity
  8
0
  6
Continuous
 62
     7
 48
5.0
370
    15
100
AcDbLine
 10
587.3197995992
 20
741.5126152305
 30
0.0
 11
587.3197995992
 21
751.5126152305
 31
0.0
  0
LINE
  5
D4
330
1F
100
AcDbEntity
  8
0
  6
Continuous
 62
     7
 48
5.0
370
    15
100
AcDbLine
 10
584.3197995992
 20
741.5126152305
 30
0.0
 11
587.3197995992
 21
741.5126152305
 31
0.0
  0
LINE
  5
D5
330
1F
100
AcDbEntity
  8
0
  6
Continuous
 62
     7
 48
5.0
370
    15
100
AcDbLine
 10
584.3197995992
 20
731.5126152305
 30
0.0
 11
584.3197995992
 21
741.5126152305
 31
0.0
  0
LINE
  5
D6
330
1F
100
AcDbEntity
  8
0
  6
Continuous
 62
     7
 48
5.0
370
    15
100
AcDbLine
 10
587.3197995992
 20
731.5126152305
 30
0.0
 11
584.3197995992
 21
731.5126152305
 31
0.0
  0
LINE
  5
D7
330
1F
100
AcDbEntity
  8
0
  6
Continuous
 62
     7
 48
5.0
370
    15
100
AcDbLine
 10
587.3197995992
 20
721.5126152305
 30
0.0
 11
587.3197995992
 21
731.5126152305
 31
0.0
  0
LINE
  5
D8
330
1F
100
AcDbEntity
  8
0
  6
Continuous
 62
     7
 48
5.0
370
    15
100
AcDbLine
 10
584.3197995992
 20
721.5126152305
 30
0.0
 11
587.3197995992
 21
721.5126152305
 31
0.0
  0
LINE
  5
D9
330
1F
100
AcDbEntity
  8
0
  6
Continuous
 62
     7
 48
5.0
370
    15
100
AcDbLine
 10
584.3197995992
 20
711.5126152305
 30
0.0
 11
584.3197995992
 21
721.5126152305
 31
0.0
  0
LINE
  5
DA
330
1F
100
AcDbEntity
  8
0
  6
Continuous
 62
     7
 48
5.0
370
    15
100
AcDbLine
 10
587.3197995992
 20
711.5126152305
 30
0.0
 11
584.3197995992
 21
711.5126152305
 31
0.0
  0
LINE
  5
DB
330
1F
100
AcDbEntity
  8
0
  6
Continuous
 62
     7
 48
5.0
370
    15
100
AcDbLine
 10
587.3197995992
 20
701.5126152305
 30
0.0
 11
587.3197995992
 21
711.5126152305
 31
0.0
  0
LINE
  5
DC
330
1F
100
AcDbEntity
  8
0
  6
Continuous
 62
     7
 48
5.0
370
    15
100
AcDbLine
 10
584.3197995992
 20
701.5126152305
 30
0.0
 11
587.3197995992
 21
701.5126152305
 31
0.0
  0
LINE
  5
DD
330
1F
100
AcDbEntity
  8
0
  6
Continuous
 62
     7
 48
5.0
370
    15
100
AcDbLine
 10
584.3197995992
 20
691.5126152305
 30
0.0
 11
584.3197995992
 21
701.5126152305
 31
0.0
  0
LINE
  5
DE
330
1F
100
AcDbEntity
  8
0
  6
Continuous
 62
     7
 48
5.0
370
    15
100
AcDbLine
 10
587.3197995992
 20
691.5126152305
 30
0.0
 11
584.3197995992
 21
691.5126152305
 31
0.0
  0
LINE
  5
DF
330
1F
100
AcDbEntity
  8
0
  6
Continuous
 62
     7
 48
5.0
370
    15
100
AcDbLine
 10
587.3197995992
 20
681.5126152305
 30
0.0
 11
587.3197995992
 21
691.5126152305
 31
0.0
  0
LINE
  5
E0
330
1F
100
AcDbEntity
  8
0
  6
Continuous
 62
     7
 48
5.0
370
    15
100
AcDbLine
 10
574.3197995992
 20
681.5126152305
 30
0.0
 11
587.3197995992
 21
681.5126152305
 31
0.0
  0
LINE
  5
E1
330
1F
100
AcDbEntity
  8
0
  6
Continuous
 62
     7
 48
5.0
370
    15
100
AcDbLine
 10
574.3197995992
 20
678.5126152305
 30
0.0
 11
574.3197995992
 21
681.5126152305
 31
0.0
  0
LINE
  5
E2
330
1F
100
AcDbEntity
  8
0
  6
Continuous
 62
     7
 48
5.0
370
    15
100
AcDbLine
 10
564.3197995992
 20
678.5126152305
 30
0.0
 11
574.3197995992
 21
678.5126152305
 31
0.0
  0
LINE
  5
E3
330
1F
100
AcDbEntity
  8
0
  6
Continuous
 62
     7
 48
5.0
370
    15
100
AcDbLine
 10
564.3197995992
 20
681.5126152305
 30
0.0
 11
564.3197995992
 21
678.5126152305
 31
0.0
  0
LINE
  5
E4
330
1F
100
AcDbEntity
  8
0
  6
Continuous
 62
     7
 48
5.0
370
    15
100
AcDbLine
 10
554.3197995992
 20
681.5126152305
 30
0.0
 11
564.3197995992
 21
681.5126152305
 31
0.0
  0
LINE
  5
E5
330
1F
100
AcDbEntity
  8
0
  6
Continuous
 62
     7
 48
5.0
370
    15
100
AcDbLine
 10
554.3197995992
 20
678.5126152305
 30
0.0
 11
554.3197995992
 21
681.5126152305
 31
0.0
  0
LINE
  5
E6
330
1F
100
AcDbEntity
  8
0
  6
Continuous
 62
     7
 48
5.0
370
    15
100
AcDbLine
 10
544.3197995992
 20
678.5126152305
 30
0.0
 11
554.3197995992
 21
678.5126152305
 31
0.0
  0
LINE
  5
E7
330
1F
100
AcDbEntity
  8
0
  6
Continuous
 62
     7
 48
5.0
370
    15
100
AcDbLine
 10
544.3197995992
 20
681.5126152305
 30
0.0
 11
544.3197995992
 21
678.5126152305
 31
0.0
  0
LINE
  5
E8
330
1F
100
AcDbEntity
  8
0
  6
Continuous
 62
     7
 48
5.0
370
    15
100
AcDbLine
 10
534.3197995992
 20
681.5126152305
 30
0.0
 11
544.3197995992
 21
681.5126152305
 31
0.0
  0
LINE
  5
E9
330
1F
100
AcDbEntity
  8
0
  6
Continuous
 62
     7
 48
5.0
370
    15
100
AcDbLine
 10
534.3197995992
 20
678.5126152305
 30
0.0
 11
534.3197995992
 21
681.5126152305
 31
0.0
  0
LINE
  5
EA
330
1F
100
AcDbEntity
  8
0
  6
Continuous
 62
     7
 48
5.0
370
    15
100
AcDbLine
 10
524.3197995992
 20
678.5126152305
 30
0.0
 11
534.3197995992
 21
678.5126152305
 31
0.0
  0
LINE
  5
EB
330
1F
100
AcDbEntity
  8
0
  6
Continuous
 62
     7
 48
5.0
370
    15
100
AcDbLine
 10
524.3197995992
 20
681.5126152305
 30
0.0
 11
524.3197995992
 21
678.5126152305
 31
0.0
  0
LINE
  5
EC
330
1F
100
AcDbEntity
  8
0
  6
Continuous
 62
     7
 48
5.0
370
    15
100
AcDbLine
 10
514.3197995992
 20
681.5126152305
 30
0.0
 11
524.3197995992
 21
681.5126152305
 31
0.0
  0
LINE
  5
ED
330
1F
100
AcDbEntity
  8
0
  6
Continuous
 62
     7
 48
5.0
370
    15
100
AcDbLine
 10
514.3197995992
 20
678.5126152305
 30
0.0
 11
514.3197995992
 21
681.5126152305
 31
0.0
  0
LINE
  5
EE
330
1F
100
AcDbEntity
  8
0
  6
Continuous
 62
     7
 48
5.0
370
    15
100
AcDbLine
 10
504.3197995992
 20
678.5126152305
 30
0.0
 11
514.3197995992
 21
678.5126152305
 31
0.0
  0
LINE
  5
EF
330
1F
100
AcDbEntity
  8
0
  6
Continuous
 62
     7
 48
5.0
370
    15
100
AcDbLine
 10
504.3197995992
 20
681.5126152305
 30
0.0
 11
504.3197995992
 21
678.5126152305
 31
0.0
  0
LINE
  5
F0
330
1F
100
AcDbEntity
  8
0
  6
Continuous
 62
     7
 48
5.0
370
    15
100
AcDbLine
 10
494.3197995992
 20
681.5126152305
 30
0.0
 11
504.3197995992
 21
681.5126152305
 31
0.0
  0
LINE
  5
F1
330
1F
100
AcDbEntity
  8
0
  6
Continuous
 62
     7
 48
5.0
370
    15
100
AcDbLine
 10
494.3197995992
 20
678.5126152305
 30
0.0
 11
494.3197995992
 21
681.5126152305
 31
0.0
  0
LINE
  5
F2
330
1F
100
AcDbEntity
  8
0
  6
Continuous
 62
     7
 48
5.0
370
    15
100
AcDbLine
 10
484.3197995992
 20
678.5126152305
 30
0.0
 11
494.3197995992
 21
678.5126152305
 31
0.0
  0
LINE
  5
F3
330
1F
100
AcDbEntity
  8
0
  6
Continuous
 62
     7
 48
5.0
370
    15
100
AcDbLine
 10
484.3197995992
 20
681.5126152305
 30
0.0
 11
484.3197995992
 21
678.5126152305
 31
0.0
  0
LINE
  5
F4
330
1F
100
AcDbEntity
  8
0
  6
Continuous
 62
     7
 48
5.0
370
    15
100
AcDbLine
 10
474.3197995992
 20
681.5126152305
 30
0.0
 11
484.3197995992
 21
681.5126152305
 31
0.0
  0
LINE
  5
F5
330
1F
100
AcDbEntity
  8
0
  6
Continuous
 62
     7
 48
5.0
370
    15
100
AcDbLine
 10
474.3197995992
 20
678.5126152305
 30
0.0
 11
474.3197995992
 21
681.5126152305
 31
0.0
  0
LINE
  5
F6
330
1F
100
AcDbEntity
  8
0
  6
Continuous
 62
     7
 48
5.0
370
    15
100
AcDbLine
 10
464.3197995992
 20
678.5126152305
 30
0.0
 11
474.3197995992
 21
678.5126152305
 31
0.0
  0
LINE
  5
F7
330
1F
100
AcDbEntity
  8
0
  6
Continuous
 62
     7
 48
5.0
370
    15
100
AcDbLine
 10
464.3197995992
 20
681.5126152305
 30
0.0
 11
464.3197995992
 21
678.5126152305
 31
0.0
  0
LINE
  5
F8
330
1F
100
AcDbEntity
  8
0
  6
Continuous
 62
     7
 48
5.0
370
    15
100
AcDbLine
 10
454.3197995992
 20
681.5126152305
 30
0.0
 11
464.3197995992
 21
681.5126152305
 31
0.0
  0
LINE
  5
F9
330
1F
100
AcDbEntity
  8
0
  6
Continuous
 62
     7
 48
5.0
370
    15
100
AcDbLine
 10
454.3197995992
 20
678.5126152305
 30
0.0
 11
454.3197995992
 21
681.5126152305
 31
0.0
  0
LINE
  5
FA
330
1F
100
AcDbEntity
  8
0
  6
Continuous
 62
     7
 48
5.0
370
    15
100
AcDbLine
 10
444.3197995992
 20
678.5126152305
 30
0.0
 11
454.3197995992
 21
678.5126152305
 31
0.0
  0
LINE
  5
FB
330
1F
100
AcDbEntity
  8
0
  6
Continuous
 62
     7
 48
5.0
370
    15
100
AcDbLine
 10
444.3197995992
 20
681.5126152305
 30
0.0
 11
444.3197995992
 21
678.5126152305
 31
0.0
  0
LINE
  5
FC
330
1F
100
AcDbEntity
  8
0
  6
Continuous
 62
     7
 48
5.0
370
    15
100
AcDbLine
 10
434.3197995992
 20
681.5126152305
 30
0.0
 11
444.3197995992
 21
681.5126152305
 31
0.0
  0
LINE
  5
FD
330
1F
100
AcDbEntity
  8
0
  6
Continuous
 62
     7
 48
5.0
370
    15
100
AcDbLine
 10
434.3197995992
 20
678.5126152305
 30
0.0
 11
434.3197995992
 21
681.5126152305
 31
0.0
  0
LINE
  5
FE
330
1F
100
AcDbEntity
  8
0
  6
Continuous
 62
     7
 48
5.0
370
    15
100
AcDbLine
 10
424.3197995992
 20
678.5126152305
 30
0.0
 11
434.3197995992
 21
678.5126152305
 31
0.0
  0
LINE
  5
FF
330
1F
100
AcDbEntity
  8
0
  6
Continuous
 62
     7
 48
5.0
370
    15
100
AcDbLine
 10
424.3197995992
 20
691.5126152305
 30
0.0
 11
424.3197995992
 21
678.5126152305
 31
0.0
  0
LINE
  5
100
330
1F
100
AcDbEntity
  8
0
  6
Continuous
 62
     7
 48
5.0
370
    15
100
AcDbLine
 10
421.3197995992
 20
691.5126152305
 30
0.0
 11
424.3197995992
 21
691.5126152305
 31
0.0
  0
LINE
  5
101
330
1F
100
AcDbEntity
  8
0
  6
Continuous
 62
     7
 48
5.0
370
    15
100
AcDbLine
 10
421.3197995992
 20
701.5126152305
 30
0.0
 11
421.3197995992
 21
691.5126152305
 31
0.0
  0
LINE
  5
102
330
1F
100
AcDbEntity
  8
0
  6
Continuous
 62
     7
 48
5.0
370
    15
100
AcDbLine
 10
424.3197995992
 20
701.5126152305
 30
0.0
 11
421.3197995992
 21
701.5126152305
 31
0.0
  0
LINE
  5
103
330
1F
100
AcDbEntity
  8
0
  6
Continuous
 62
     7
 48
5.0
370
    15
100
AcDbLine
 10
424.3197995992
 20
711.5126152305
 30
0.0
 11
424.3197995992
 21
701.5126152305
 31
0.0
  0
LINE
  5
104
330
1F
100
AcDbEntity
  8
0
  6
Continuous
 62
     7
 48
5.0
370
    15
100
AcDbLine
 10
421.3197995992
 20
711.5126152305
 30
0.0
 11
424.3197995992
 21
711.5126152305
 31
0.0
  0
LINE
  5
105
330
1F
100
AcDbEntity
  8
0
  6
Continuous
 62
     7
 48
5.0
370
    15
100
AcDbLine
 10
421.3197995992
 20
721.5126152305
 30
0.0
 11
421.3197995992
 21
711.5126152305
 31
0.0
  0
LINE
  5
106
330
1F
100
AcDbEntity
  8
0
  6
Continuous
 62
     7
 48
5.0
370
    15
100
AcDbLine
 10
424.3197995992
 20
721.5126152305
 30
0.0
 11
421.3197995992
 21
721.5126152305
 31
0.0
  0
LINE
  5
107
330
1F
100
AcDbEntity
  8
0
  6
Continuous
 62
     7
 48
5.0
370
    15
100
AcDbLine
 10
424.3197995992
 20
731.5126152305
 30
0.0
 11
424.3197995992
 21
721.5126152305
 31
0.0
  0
LINE
  5
108
330
1F
100
AcDbEntity
  8
0
  6
Continuous
 62
     7
 48
5.0
370
    15
100
AcDbLine
 10
421.3197995992
 20
731.5126152305
 30
0.0
 11
424.3197995992
 21
731.5126152305
 31
0.0
  0
LINE
  5
109
330
1F
100
AcDbEntity
  8
0
  6
Continuous
 62
     7
 48
5.0
370
    15
100
AcDbLine
 10
421.3197995992
 20
741.5126152305
 30
0.0
 11
421.3197995992
 21
731.5126152305
 31
0.0
  0
LINE
  5
10A
330
1F
100
AcDbEntity
  8
0
  6
Continuous
 62
     7
 48
5.0
370
    15
100
AcDbLine
 10
424.3197995992
 20
741.5126152305
 30
0.0
 11
421.3197995992
 21
741.5126152305
 31
0.0
  0
LINE
  5
10B
330
1F
100
AcDbEntity
  8
0
  6
Continuous
 62
     7
 48
5.0
370
    15
100
AcDbLine
 10
424.3197995992
 20
751.5126152305
 30
0.0
 11
424.3197995992
 21
741.5126152305
 31
0.0
  0
LINE
  5
10C
330
1F
100
AcDbEntity
  8
0
  6
Continuous
 62
     7
 48
5.0
370
    15
100
AcDbLine
 10
421.3197995992
 20
751.5126152305
 30
0.0
 11
424.3197995992
 21
751.5126152305
 31
0.0
  0
LINE
  5
10D
330
1F
100
AcDbEntity
  8
0
  6
Continuous
 62
     7
 48
5.0
370
    15
100
AcDbLine
 10
421.3197995992
 20
761.5126152305
 30
0.0
 11
421.3197995992
 21
751.5126152305
 31
0.0
  0
LINE
  5
10E
330
1F
100
AcDbEntity
  8
0
  6
Continuous
 62
     7
 48
5.0
370
    15
100
AcDbLine
 10
424.3197995992
 20
761.5126152305
 30
0.0
 11
421.3197995992
 21
761.5126152305
 31
0.0
  0
LINE
  5
10F
330
1F
100
AcDbEntity
  8
0
  6
Continuous
 62
     7
 48
5.0
370
    15
100
AcDbLine
 10
424.3197995992
 20
771.5126152305
 30
0.0
 11
424.3197995992
 21
761.5126152305
 31
0.0
  0
LINE
  5
110
330
1F
100
AcDbEntity
  8
0
  6
Continuous
 62
     7
 48
5.0
370
    15
100
AcDbLine
 10
421.3197995992
 20
771.5126152305
 30
0.0
 11
424.3197995992
 21
771.5126152305
 31
0.0
  0
LINE
  5
111
330
1F
100
AcDbEntity
  8
0
  6
Continuous
 62
     7
 48
5.0
370
    15
100
AcDbLine
 10
421.3197995992
 20
781.5126152305
 30
0.0
 11
421.3197995992
 21
771.5126152305
 31
0.0
  0
LINE
  5
112
330
1F
100
AcDbEntity
  8
0
  6
Continuous
 62
     7
 48
5.0
370
    15
100
AcDbLine
 10
424.3197995992
 20
781.5126152305
 30
0.0
 11
421.3197995992
 21
781.5126152305
 31
0.0
  0
LINE
  5
113
330
1F
100
AcDbEntity
  8
0
  6
Continuous
 62
     7
 48
5.0
370
    15
100
AcDbLine
 10
424.3197995992
 20
791.5126152305
 30
0.0
 11
424.3197995992
 21
781.5126152305
 31
0.0
  0
LINE
  5
114
330
1F
100
AcDbEntity
  8
0
  6
Continuous
 62
     7
 48
5.0
370
    15
100
AcDbLine
 10
421.3197995992
 20
791.5126152305
 30
0.0
 11
424.3197995992
 21
791.5126152305
 31
0.0
  0
LINE
  5
115
330
1F
100
AcDbEntity
  8
0
  6
Continuous
 62
     7
 48
5.0
370
    15
100
AcDbLine
 10
421.3197995992
 20
801.5126152305
 30
0.0
 11
421.3197995992
 21
791.5126152305
 31
0.0
  0
LINE
  5
116
330
1F
100
AcDbEntity
  8
0
  6
Continuous
 62
     7
 48
5.0
370
    15
100
AcDbLine
 10
424.3197995992
 20
801.5126152305
 30
0.0
 11
421.3197995992
 21
801.5126152305
 31
0.0
  0
LINE
  5
117
330
1F
100
AcDbEntity
  8
0
  6
Continuous
 62
     7
 48
5.0
370
    15
100
AcDbLine
 10
424.3197995992
 20
811.5126152305
 30
0.0
 11
424.3197995992
 21
801.5126152305
 31
0.0
  0
LINE
  5
118
330
1F
100
AcDbEntity
  8
0
  6
Continuous
 62
     7
 48
5.0
370
    15
100
AcDbLine
 10
421.3197995992
 20
811.5126152305
 30
0.0
 11
424.3197995992
 21
811.5126152305
 31
0.0
  0
LINE
  5
119
330
1F
100
AcDbEntity
  8
0
  6
Continuous
 62
     7
 48
5.0
370
    15
100
AcDbLine
 10
421.3197995992
 20
821.5126152305
 30
0.0
 11
421.3197995992
 21
811.5126152305
 31
0.0
  0
LINE
  5
11A
330
1F
100
AcDbEntity
  8
0
  6
Continuous
 62
     7
 48
5.0
370
    15
100
AcDbLine
 10
424.3197995992
 20
821.5126152305
 30
0.0
 11
421.3197995992
 21
821.5126152305
 31
0.0
  0
LINE
  5
11B
330
1F
100
AcDbEntity
  8
0
  6
Continuous
 62
     7
 48
5.0
370
    15
100
AcDbLine
 10
424.3197995992
 20
831.5126152305
 30
0.0
 11
424.3197995992
 21
821.5126152305
 31
0.0
  0
LINE
  5
11C
330
1F
100
AcDbEntity
  8
0
  6
Continuous
 62
     7
 48
5.0
370
    15
100
AcDbLine
 10
421.3197995992
 20
831.5126152305
 30
0.0
 11
424.3197995992
 21
831.5126152305
 31
0.0
  0
LINE
  5
11D
330
1F
100
AcDbEntity
  8
0
  6
Continuous
 62
     7
 48
5.0
370
    15
100
AcDbLine
 10
421.3197995992
 20
841.5126152305
 30
0.0
 11
421.3197995992
 21
831.5126152305
 31
0.0
  0
LINE
  5
11E
330
1F
100
AcDbEntity
  8
0
  6
Continuous
 62
     7
 48
5.0
370
    15
100
AcDbLine
 10
434.3197995992
 20
841.5126152305
 30
0.0
 11
421.3197995992
 21
841.5126152305
 31
0.0
  0
LINE
  5
11F
330
1F
100
AcDbEntity
  8
0
  6
Continuous
 62
     7
 48
5.0
370
    15
100
AcDbLine
 10
434.3197995992
 20
844.5126152305
 30
0.0
 11
434.3197995992
 21
841.5126152305
 31
0.0
  0
LINE
  5
120
330
1F
100
AcDbEntity
  8
0
  6
Continuous
 62
     7
 48
5.0
370
    15
100
AcDbLine
 10
444.3197995992
 20
844.5126152305
 30
0.0
 11
434.3197995992
 21
844.5126152305
 31
0.0
  0
LINE
  5
121
330
1F
100
AcDbEntity
  8
0
  6
Continuous
 62
     7
 48
5.0
370
    15
100
AcDbLine
 10
444.3197995992
 20
841.5126152305
 30
0.0
 11
444.3197995992
 21
844.5126152305
 31
0.0
  0
LINE
  5
122
330
1F
100
AcDbEntity
  8
0
  6
Continuous
 62
     7
 48
5.0
370
    15
100
AcDbLine
 10
454.3197995992
 20
841.5126152305
 30
0.0
 11
444.3197995992
 21
841.5126152305
 31
0.0
  0
LINE
  5
123
330
1F
100
AcDbEntity
  8
0
  6
Continuous
 62
     7
 48
5.0
370
    15
100
AcDbLine
 10
454.3197995992
 20
844.5126152305
 30
0.0
 11
454.3197995992
 21
841.5126152305
 31
0.0
  0
LINE
  5
124
330
1F
100
AcDbEntity
  8
0
  6
Continuous
 62
     7
 48
5.0
370
    15
100
AcDbLine
 10
464.3197995992
 20
844.5126152305
 30
0.0
 11
454.3197995992
 21
844.5126152305
 31
0.0
  0
LINE
  5
125
330
1F
100
AcDbEntity
  8
0
  6
Continuous
 62
     7
 48
5.0
370
    15
100
AcDbLine
 10
464.3197995992
 20
841.5126152305
 30
0.0
 11
464.3197995992
 21
844.5126152305
 31
0.0
  0
LINE
  5
126
330
1F
100
AcDbEntity
  8
0
  6
Continuous
 62
     7
 48
5.0
370
    15
100
AcDbLine
 10
474.3197995992
 20
841.5126152305
 30
0.0
 11
464.3197995992
 21
841.5126152305
 31
0.0
  0
LINE
  5
127
330
1F
100
AcDbEntity
  8
0
  6
Continuous
 62
     7
 48
5.0
370
    15
100
AcDbLine
 10
474.3197995992
 20
844.5126152305
 30
0.0
 11
474.3197995992
 21
841.5126152305
 31
0.0
  0
LINE
  5
128
330
1F
100
AcDbEntity
  8
0
  6
Continuous
 62
     7
 48
5.0
370
    15
100
AcDbLine
 10
484.3197995992
 20
844.5126152305
 30
0.0
 11
474.3197995992
 21
844.5126152305
 31
0.0
  0
LINE
  5
129
330
1F
100
AcDbEntity
  8
0
  6
Continuous
 62
     7
 48
5.0
370
    15
100
AcDbLine
 10
484.3197995992
 20
841.5126152305
 30
0.0
 11
484.3197995992
 21
844.5126152305
 31
0.0
  0
LINE
  5
12A
330
1F
100
AcDbEntity
  8
0
  6
Continuous
 62
     7
 48
5.0
370
    15
100
AcDbLine
 10
494.3197995992
 20
841.5126152305
 30
0.0
 11
484.3197995992
 21
841.5126152305
 31
0.0
  0
LINE
  5
12B
330
1F
100
AcDbEntity
  8
0
  6
Continuous
 62
     7
 48
5.0
370
    15
100
AcDbLine
 10
494.3197995992
 20
844.5126152305
 30
0.0
 11
494.3197995992
 21
841.5126152305
 31
0.0
  0
LINE
  5
12C
330
1F
100
AcDbEntity
  8
0
  6
Continuous
 62
     7
 48
5.0
370
    15
100
AcDbLine
 10
504.3197995992
 20
844.5126152305
 30
0.0
 11
494.3197995992
 21
844.5126152305
 31
0.0
  0
LINE
  5
12D
330
1F
100
AcDbEntity
  8
0
  6
Continuous
 62
     7
 48
5.0
370
    15
100
AcDbLine
 10
504.3197995992
 20
841.5126152305
 30
0.0
 11
504.3197995992
 21
844.5126152305
 31
0.0
  0
LINE
  5
12E
330
1F
100
AcDbEntity
  8
0
  6
Continuous
 62
     7
 48
5.0
370
    15
100
AcDbLine
 10
514.3197995992
 20
841.5126152305
 30
0.0
 11
504.3197995992
 21
841.5126152305
 31
0.0
  0
LINE
  5
12F
330
1F
100
AcDbEntity
  8
0
  6
Continuous
 62
     7
 48
5.0
370
    15
100
AcDbLine
 10
514.3197995992
 20
844.5126152305
 30
0.0
 11
514.3197995992
 21
841.5126152305
 31
0.0
  0
LINE
  5
130
330
1F
100
AcDbEntity
  8
0
  6
Continuous
 62
     7
 48
5.0
370
    15
100
AcDbLine
 10
524.3197995992
 20
844.5126152305
 30
0.0
 11
514.3197995992
 21
844.5126152305
 31
0.0
  0
LINE
  5
131
330
1F
100
AcDbEntity
  8
0
  6
Continuous
 62
     7
 48
5.0
370
    15
100
AcDbLine
 10
524.3197995992
 20
841.5126152305
 30
0.0
 11
524.3197995992
 21
844.5126152305
 31
0.0
  0
LINE
  5
132
330
1F
100
AcDbEntity
  8
0
  6
Continuous
 62
     7
 48
5.0
370
    15
100
AcDbLine
 10
534.3197995992
 20
841.5126152305
 30
0.0
 11
524.3197995992
 21
841.5126152305
 31
0.0
  0
LINE
  5
133
330
1F
100
AcDbEntity
  8
0
  6
Continuous
 62
     7
 48
5.0
370
    15
100
AcDbLine
 10
534.3197995992
 20
844.5126152305
 30
0.0
 11
534.3197995992
 21
841.5126152305
 31
0.0
  0
LINE
  5
134
330
1F
100
AcDbEntity
  8
0
  6
Continuous
 62
     7
 48
5.0
370
    15
100
AcDbLine
 10
544.3197995992
 20
844.5126152305
 30
0.0
 11
534.3197995992
 21
844.5126152305
 31
0.0
  0
LINE
  5
135
330
1F
100
AcDbEntity
  8
0
  6
Continuous
 62
     7
 48
5.0
370
    15
100
AcDbLine
 10
544.3197995992
 20
841.5126152305
 30
0.0
 11
544.3197995992
 21
844.5126152305
 31
0.0
  0
LINE
  5
136
330
1F
100
AcDbEntity
  8
0
  6
Continuous
 62
     7
 48
5.0
370
    15
100
AcDbLine
 10
554.3197995992
 20
841.5126152305
 30
0.0
 11
544.3197995992
 21
841.5126152305
 31
0.0
  0
LINE
  5
137
330
1F
100
AcDbEntity
  8
0
  6
Continuous
 62
     7
 48
5.0
370
    15
100
AcDbLine
 10
554.3197995992
 20
844.5126152305
 30
0.0
 11
554.3197995992
 21
841.5126152305
 31
0.0
  0
LINE
  5
138
330
1F
100
AcDbEntity
  8
0
  6
Continuous
 62
     7
 48
5.0
370
    15
100
AcDbLine
 10
564.3197995992
 20
844.5126152305
 30
0.0
 11
554.3197995992
 21
844.5126152305
 31
0.0
  0
LINE
  5
139
330
1F
100
AcDbEntity
  8
0
  6
Continuous
 62
     7
 48
5.0
370
    15
100
AcDbLine
 10
564.3197995992
 20
841.5126152305
 30
0.0
 11
564.3197995992
 21
844.5126152305
 31
0.0
  0
LINE
  5
13A
330
1F
100
AcDbEntity
  8
0
  6
Continuous
 62
     7
 48
5.0
370
    15
100
AcDbLine
 10
574.3197995992
 20
841.5126152305
 30
0.0
 11
564.3197995992
 21
841.5126152305
 31
0.0
  0
LINE
  5
13B
330
1F
100
AcDbEntity
  8
0
  6
Continuous
 62
     7
 48
5.0
370
    15
100
AcDbLine
 10
574.3197995992
 20
844.5126152305
 30
0.0
 11
574.3197995992
 21
841.5126152305
 31
0.0
  0
LINE
  5
13C
330
1F
100
AcDbEntity
  8
0
  6
Continuous
 62
     7
 48
5.0
370
    15
100
AcDbLine
 10
584.3197995992
 20
844.5126152305
 30
0.0
 11
574.3197995992
 21
844.5126152305
 31
0.0
  0
ENDSEC
  0
SECTION
  2
OBJECTS
  0
DICTIONARY
  5
C
330
0
100
AcDbDictionary
281
     1
  3
ACAD_GROUP
350
D
  3
ACAD_LAYOUT
350
1A
  3
ACAD_MLEADERSTYLE
350
13F
  3
ACAD_MLINESTYLE
350
17
  3
ACAD_PLOTSETTINGS
350
19
  3
ACAD_PLOTSTYLENAME
350
E
  3
ACAD_SCALELIST
350
68
  3
ACAD_VISUALSTYLE
350
2A
  3
AcDbVariableDictionary
350
13D
  0
DICTIONARY
  5
D
102
{ACAD_REACTORS
330
C
102
}
330
C
100
AcDbDictionary
281
     1
  0
DICTIONARY
  5
1A
102
{ACAD_REACTORS
330
C
102
}
330
C
100
AcDbDictionary
281
     1
  3
Layout1
350
1E
  3
Layout2
350
26
  3
Model
350
22
  0
DICTIONARY
  5
13F
102
{ACAD_REACTORS
330
C
102
}
330
C
100
AcDbDictionary
281
     1
  0
DICTIONARY
  5
17
102
{ACAD_REACTORS
330
C
102
}
330
C
100
AcDbDictionary
281
     1
  3
Standard
350
18
  0
DICTIONARY
  5
19
102
{ACAD_REACTORS
330
C
102
}
330
C
100
AcDbDictionary
281
     1
  0
ACDBDICTIONARYWDFLT
  5
E
102
{ACAD_REACTORS
330
C
102
}
330
C
100
AcDbDictionary
281
     1
  3
Normal
350
F
100
AcDbDictionaryWithDefault
340
F
  0
DICTIONARY
  5
68
102
{ACAD_REACTORS
330
C
102
}
330
C
100
AcDbDictionary
281
     1
  3
A0
350
69
  3
A1
350
6A
  3
A2
350
6B
  3
A3
350
6C
  3
A4
350
6D
  3
A5
350
6E
  3
A6
350
6F
  3
A7
350
70
  3
A8
350
71
  3
A9
350
72
  3
B0
350
73
  3
B1
350
74
  3
B2
350
75
  3
B3
350
76
  3
B4
350
77
  3
B5
350
78
  3
B6
350
79
  3
B7
350
7A
  3
B8
350
7B
  3
B9
350
7C
  3
C0
350
7D
  3
C1
350
7E
  3
C2
350
7F
  3
C3
350
80
  3
C4
350
81
  3
C5
350
82
  3
C6
350
83
  3
C7
350
84
  3
C8
350
85
  3
C9
350
86
  3
D0
350
87
  3
D1
350
88
  3
D2
350
89
  0
DICTIONARY
  5
2A
102
{ACAD_REACTORS
330
C
102
}
330
C
100
AcDbDictionary
281
     1
  3
2dWireframe
350
2F
  3
3D Hidden
350
31
  3
3dWireframe
350
30
  3
Basic
350
32
  3
Brighten
350
36
  3
ColorChange
350
3A
  3
Conceptual
350
34
  3
Dim
350
35
  3
Facepattern
350
39
  3
Flat
350
2B
  3
FlatWithEdges
350
2C
  3
Gouraud
350
2D
  3
GouraudWithEdges
350
2E
  3
Linepattern
350
38
  3
Realistic
350
33
  3
Thicken
350
37
  0
DICTIONARY
  5
13D
102
{ACAD_REACTORS
330
C
102
}
330
C
100
AcDbDictionary
281
     1
  3
CANNOSCALE
350
142
  3
DIMASSOC
350
143
  3
HIDETEXT
350
144
  3
PSOLHEIGHT
350
141
  3
PSOLWIDTH
350
140
  0
LAYOUT
  5
1E
102
{ACAD_REACTORS
330
1A
102
}
330
1A
100
AcDbPlotSettings
  1

  2
none_device
  4

  6

 40
0.0
 41
0.0
 42
0.0
 43
0.0
 44
0.0
 45
0.0
 46
0.0
 47
0.0
 48
0.0
 49
0.0
140
0.0
141
0.0
142
1.0
143
1.0
 70
   688
 72
     0
 73
     0
 74
     5
  7

 75
    16
147
1.0
148
0.0
149
0.0
100
AcDbLayout
  1
Layout1
 70
     1
 71
     1
 10
0.0
 20
0.0
 11
420.0
 21
297.0
 12
0.0
 22
0.0
 32
0.0
 14
1.0000000000E+20
 24
1.0000000000E+20
 34
1.0000000000E+20
 15
-1.0000000000E+20
 25
-1.0000000000E+20
 35
-1.0000000000E+20
146
0.0
 13
0.0
 23
0.0
 33
0.0
 16
1.0
 26
0.0
 36
0.0
 17
0.0
 27
1.0
 37
0.0
 76
     0
330
1B
  0
LAYOUT
  5
26
102
{ACAD_REACTORS
330
1A
102
}
330
1A
100
AcDbPlotSettings
  1

  2
none_device
  4

  6

 40
0.0
 41
0.0
 42
0.0
 43
0.0
 44
0.0
 45
0.0
 46
0.0
 47
0.0
 48
0.0
 49
0.0
140
0.0
141
0.0
142
1.0
143
1.0
 70
   688
 72
     0
 73
     0
 74
     5
  7

 75
    16
147
1.0
148
0.0
149
0.0
100
AcDbLayout
  1
Layout2
 70
     1
 71
     2
 10
0.0
 20
0.0
 11
0.0
 21
0.0
 12
0.0
 22
0.0
 32
0.0
 14
0.0
 24
0.0
 34
0.0
 15
0.0
 25
0.0
 35
0.0
146
0.0
 13
0.0
 23
0.0
 33
0.0
 16
1.0
 26
0.0
 36
0.0
 17
0.0
 27
1.0
 37
0.0
 76
     0
330
23
  0
LAYOUT
  5
22
102
{ACAD_REACTORS
330
1A
102
}
330
1A
100
AcDbPlotSettings
  1

  2
none_device
  4

  6

 40
0.0
 41
0.0
 42
0.0
 43
0.0
 44
0.0
 45
0.0
 46
0.0
 47
0.0
 48
0.0
 49
0.0
140
0.0
141
0.0
142
1.0
143
1.0
 70
  1712
 72
     0
 73
     0
 74
     0
  7

 75
     0
147
1.0
148
0.0
149
0.0
100
AcDbLayout
  1
Model
 70
     1
 71
     0
 10
0.0
 20
0.0
 11
1397.0
 21
1079.5
 12
0.0
 22
0.0
 32
0.0
 14
0.0
 24
0.0
 34
0.0
 15
1397.0
 25
1079.5
 35
0.0
146
0.0
 13
0.0
 23
0.0
 33
0.0
 16
1.0
 26
0.0
 36
0.0
 17
0.0
 27
1.0
 37
0.0
 76
     0
330
1F
331
29
  0
MLINESTYLE
  5
18
102
{ACAD_REACTORS
330
17
102
}
330
17
100
AcDbMlineStyle
  2
Standard
 70
     0
  3

 62
   256
 51
90.0
 52
90.0
 71
     2
 49
0.5
 62
   256
  6
BYLAYER
 49
-0.5
 62
   256
  6
BYLAYER
  0
ACDBPLACEHOLDER
  5
F
102
{ACAD_REACTORS
330
E
102
}
330
E
  0
SCALE
  5
69
102
{ACAD_REACTORS
330
68
102
}
330
68
100
AcDbScale
 70
     0
300
1:1
140
1.0
141
1.0
290
     1
  0
SCALE
  5
6A
102
{ACAD_REACTORS
330
68
102
}
330
68
100
AcDbScale
 70
     0
300
1:2
140
1.0
141
2.0
290
     0
  0
SCALE
  5
6B
102
{ACAD_REACTORS
330
68
102
}
330
68
100
AcDbScale
 70
     0
300
1:4
140
1.0
141
4.0
290
     0
  0
SCALE
  5
6C
102
{ACAD_REACTORS
330
68
102
}
330
68
100
AcDbScale
 70
     0
300
1:5
140
1.0
141
5.0
290
     0
  0
SCALE
  5
6D
102
{ACAD_REACTORS
330
68
102
}
330
68
100
AcDbScale
 70
     0
300
1:8
140
1.0
141
8.0
290
     0
  0
SCALE
  5
6E
102
{ACAD_REACTORS
330
68
102
}
330
68
100
AcDbScale
 70
     0
300
1:10
140
1.0
141
10.0
290
     0
  0
SCALE
  5
6F
102
{ACAD_REACTORS
330
68
102
}
330
68
100
AcDbScale
 70
     0
300
1:16
140
1.0
141
16.0
290
     0
  0
SCALE
  5
70
102
{ACAD_REACTORS
330
68
102
}
330
68
100
AcDbScale
 70
     0
300
1:20
140
1.0
141
20.0
290
     0
  0
SCALE
  5
71
102
{ACAD_REACTORS
330
68
102
}
330
68
100
AcDbScale
 70
     0
300
1:30
140
1.0
141
30.0
290
     0
  0
SCALE
  5
72
102
{ACAD_REACTORS
330
68
102
}
330
68
100
AcDbScale
 70
     0
300
1:40
140
1.0
141
40.0
290
     0
  0
SCALE
  5
73
102
{ACAD_REACTORS
330
68
102
}
330
68
100
AcDbScale
 70
     0
300
1:50
140
1.0
141
50.0
290
     0
  0
SCALE
  5
74
102
{ACAD_REACTORS
330
68
102
}
330
68
100
AcDbScale
 70
     0
300
1:100
140
1.0
141
100.0
290
     0
  0
SCALE
  5
75
102
{ACAD_REACTORS
330
68
102
}
330
68
100
AcDbScale
 70
     0
300
2:1
140
2.0
141
1.0
290
     0
  0
SCALE
  5
76
102
{ACAD_REACTORS
330
68
102
}
330
68
100
AcDbScale
 70
     0
300
4:1
140
4.0
141
1.0
290
     0
  0
SCALE
  5
77
102
{ACAD_REACTORS
330
68
102
}
330
68
100
AcDbScale
 70
     0
300
8:1
140
8.0
141
1.0
290
     0
  0
SCALE
  5
78
102
{ACAD_REACTORS
330
68
102
}
330
68
100
AcDbScale
 70
     0
300
10:1
140
10.0
141
1.0
290
     0
  0
SCALE
  5
79
102
{ACAD_REACTORS
330
68
102
}
330
68
100
AcDbScale
 70
     0
300
100:1
140
100.0
141
1.0
290
     0
  0
SCALE
  5
7A
102
{ACAD_REACTORS
330
68
102
}
330
68
100
AcDbScale
 70
     0
300
1/128" = 1'-0"
140
0.0078125
141
12.0
290
     0
  0
SCALE
  5
7B
102
{ACAD_REACTORS
330
68
102
}
330
68
100
AcDbScale
 70
     0
300
1/64" = 1'-0"
140
0.015625
141
12.0
290
     0
  0
SCALE
  5
7C
102
{ACAD_REACTORS
330
68
102
}
330
68
100
AcDbScale
 70
     0
300
1/32" = 1'-0"
140
0.03125
141
12.0
290
     0
  0
SCALE
  5
7D
102
{ACAD_REACTORS
330
68
102
}
330
68
100
AcDbScale
 70
     0
300
1/16" = 1'-0"
140
0.0625
141
12.0
290
     0
  0
SCALE
  5
7E
102
{ACAD_REACTORS
330
68
102
}
330
68
100
AcDbScale
 70
     0
300
3/32" = 1'-0"
140
0.09375
141
12.0
290
     0
  0
SCALE
  5
7F
102
{ACAD_REACTORS
330
68
102
}
330
68
100
AcDbScale
 70
     0
300
1/8" = 1'-0"
140
0.125
141
12.0
290
     0
  0
SCALE
  5
80
102
{ACAD_REACTORS
330
68
102
}
330
68
100
AcDbScale
 70
     0
300
3/16" = 1'-0"
140
0.1875
141
12.0
290
     0
  0
SCALE
  5
81
102
{ACAD_REACTORS
330
68
102
}
330
68
100
AcDbScale
 70
     0
300
1/4" = 1'-0"
140
0.25
141
12.0
290
     0
  0
SCALE
  5
82
102
{ACAD_REACTORS
330
68
102
}
330
68
100
AcDbScale
 70
     0
300
3/8" = 1'-0"
140
0.375
141
12.0
290
     0
  0
SCALE
  5
83
102
{ACAD_REACTORS
330
68
102
}
330
68
100
AcDbScale
 70
     0
300
1/2" = 1'-0"
140
0.5
141
12.0
290
     0
  0
SCALE
  5
84
102
{ACAD_REACTORS
330
68
102
}
330
68
100
AcDbScale
 70
     0
300
3/4" = 1'-0"
140
0.75
141
12.0
290
     0
  0
SCALE
  5
85
102
{ACAD_REACTORS
330
68
102
}
330
68
100
AcDbScale
 70
     0
300
1" = 1'-0"
140
1.0
141
12.0
290
     0
  0
SCALE
  5
86
102
{ACAD_REACTORS
330
68
102
}
330
68
100
AcDbScale
 70
     0
300
1-1/2" = 1'-0"
140
1.5
141
12.0
290
     0
  0
SCALE
  5
87
102
{ACAD_REACTORS
330
68
102
}
330
68
100
AcDbScale
 70
     0
300
3" = 1'-0"
140
3.0
141
12.0
290
     0
  0
SCALE
  5
88
102
{ACAD_REACTORS
330
68
102
}
330
68
100
AcDbScale
 70
     0
300
6" = 1'-0"
140
6.0
141
12.0
290
     0
  0
SCALE
  5
89
102
{ACAD_REACTORS
330
68
102
}
330
68
100
AcDbScale
 70
     0
300
1'-0" = 1'-0"
140
12.0
141
12.0
290
     0
  0
VISUALSTYLE
  5
2F
102
{ACAD_REACTORS
330
2A
102
}
330
2A
100
AcDbVisualStyle
  2
2dWireframe
 70
     4
 71
     0
 72
     2
 73
     0
 90
        0
 40
-0.6
 41
-30.0
 62
     5
 63
     7
 74
     1
 91
        4
 64
     7
 65
   257
 75
     1
175
     1
 42
1.0
 92
        0
 66
   257
 43
1.0
 76
     1
 77
     6
 78
     2
 67
     7
 79
     5
170
     0
171
     0
290
     0
174
     0
 93
        1
 44
0.0
173
     0
291
     0
 45
0.0
1001
ACAD
1000
AcDbSavedByObjectVersion
1070
     0
  0
VISUALSTYLE
  5
31
102
{ACAD_REACTORS
330
2A
102
}
330
2A
100
AcDbVisualStyle
  2
3D Hidden
 70
     6
 71
     1
 72
     2
 73
     2
 90
        0
 40
-0.6
 41
-30.0
 62
     5
 63
     7
 74
     2
 91
        2
 64
     7
 65
   257
 75
     2
175
     1
 42
40.0
 92
        0
 66
   257
 43
1.0
 76
     1
 77
     6
 78
     2
 67
     7
 79
     3
170
     0
171
     0
290
     0
174
     0
 93
        1
 44
0.0
173
     0
291
     0
 45
0.0
1001
ACAD
1000
AcDbSavedByObjectVersion
1070
     0
  0
VISUALSTYLE
  5
30
102
{ACAD_REACTORS
330
2A
102
}
330
2A
100
AcDbVisualStyle
  2
3dWireframe
 70
     5
 71
     0
 72
     2
 73
     0
 90
        0
 40
-0.6
 41
-30.0
 62
     5
 63
     7
 74
     1
 91
        4
 64
     7
 65
   257
 75
     1
175
     1
 42
1.0
 92
        0
 66
   257
 43
1.0
 76
     1
 77
     6
 78
     2
 67
     7
 79
     5
170
     0
171
     0
290
     0
174
     0
 93
        1
 44
0.0
173
     0
291
     0
 45
0.0
1001
ACAD
1000
AcDbSavedByObjectVersion
1070
     0
  0
VISUALSTYLE
  5
32
102
{ACAD_REACTORS
330
2A
102
}
330
2A
100
AcDbVisualStyle
  2
Basic
 70
     7
 71
     1
 72
     0
 73
     1
 90
        0
 40
-0.6
 41
-30.0
 62
     5
 63
     7
 74
     0
 91
        4
 64
     7
 65
   257
 75
     1
175
     1
 42
1.0
 92
        8
 66
     7
 43
1.0
 76
     1
 77
     6
 78
     2
 67
     7
 79
     5
170
     0
171
     0
290
     0
174
     0
 93
        1
 44
0.0
173
     0
291
     1
 45
0.0
1001
ACAD
1000
AcDbSavedByObjectVersion
1070
     0
  0
VISUALSTYLE
  5
36
102
{ACAD_REACTORS
330
2A
102
}
330
2A
100
AcDbVisualStyle
  2
Brighten
 70
    12
 71
     2
 72
     2
 73
     0
 90
        0
 40
-0.6
 41
-30.0
 62
     5
 63
     7
 74
     1
 91
        4
 64
     7
 65
   257
 75
     1
175
     1
 42
1.0
 92
        8
 66
     7
 43
1.0
 76
     1
 77
     6
 78
     2
 67
     7
 79
     5
170
     0
171
     0
290
     0
174
     0
 93
        1
 44
50.0
173
     0
291
     1
 45
0.0
1001
ACAD
1000
AcDbSavedByObjectVersion
1070
     0
  0
VISUALSTYLE
  5
3A
102
{ACAD_REACTORS
330
2A
102
}
330
2A
100
AcDbVisualStyle
  2
ColorChange
 70
    16
 71
     2
 72
     2
 73
     3
 90
        0
 40
-0.6
 41
-30.0
 62
     5
 63
     8
 74
     1
 91
        4
 64
     7
 65
   257
 75
     1
175
     1
 42
1.0
 92
        8
 66
     8
 43
1.0
 76
     1
 77
     6
 78
     2
 67
     7
 79
     5
170
     0
171
     0
290
     0
174
     0
 93
        1
 44
0.0
173
     0
291
     1
 45
0.0
1001
ACAD
1000
AcDbSavedByObjectVersion
1070
     0
  0
VISUALSTYLE
  5
34
102
{ACAD_REACTORS
330
2A
102
}
330
2A
100
AcDbVisualStyle
  2
Conceptual
 70
     9
 71
     3
 72
     2
 73
     0
 90
        0
 40
-0.6
 41
-30.0
 62
     5
 63
     7
 74
     2
 91
        2
 64
     7
 65
   257
 75
     1
175
     1
 42
40.0
 92
        8
 66
     7
 43
1.0
 76
     1
 77
     6
 78
     2
 67
     7
 79
     3
170
     0
171
     0
290
     0
174
     0
 93
        1
 44
0.0
173
     0
291
     0
 45
0.0
1001
ACAD
1000
AcDbSavedByObjectVersion
1070
     0
  0
VISUALSTYLE
  5
35
102
{ACAD_REACTORS
330
2A
102
}
330
2A
100
AcDbVisualStyle
  2
Dim
 70
    11
 71
     2
 72
     2
 73
     0
 90
        0
 40
-0.6
 41
-30.0
 62
     5
 63
     7
 74
     1
 91
        4
 64
     7
 65
   257
 75
     1
175
     1
 42
1.0
 92
        8
 66
     7
 43
1.0
 76
     1
 77
     6
 78
     2
 67
     7
 79
     5
170
     0
171
     0
290
     0
174
     0
 93
        1
 44
-50.0
173
     0
291
     1
 45
0.0
1001
ACAD
1000
AcDbSavedByObjectVersion
1070
     0
  0
VISUALSTYLE
  5
39
102
{ACAD_REACTORS
330
2A
102
}
330
2A
100
AcDbVisualStyle
  2
Facepattern
 70
    15
 71
     2
 72
     2
 73
     0
 90
        0
 40
-0.6
 41
-30.0
 62
     5
 63
     7
 74
     1
 91
        4
 64
     7
 65
   257
 75
     1
175
     1
 42
1.0
 92
        8
 66
     7
 43
1.0
 76
     1
 77
     6
 78
     2
 67
     7
 79
     5
170
     0
171
     0
290
     0
174
     0
 93
        1
 44
0.0
173
     0
291
     1
 45
0.0
1001
ACAD
1000
AcDbSavedByObjectVersion
1070
     0
  0
VISUALSTYLE
  5
2B
102
{ACAD_REACTORS
330
2A
102
}
330
2A
100
AcDbVisualStyle
  2
Flat
 70
     0
 71
     2
 72
     1
 73
     1
 90
        2
 40
-0.6
 41
30.0
 62
     5
 63
     7
 74
     0
 91
        4
 64
     7
 65
   257
 75
     1
175
     1
 42
1.0
 92
        8
 66
     7
 43
1.0
 76
     1
 77
     6
 78
     2
 67
     7
 79
     5
170
     0
171
     0
290
     0
174
     0
 93
       13
 44
0.0
173
     0
291
     1
 45
0.0
1001
ACAD
1000
AcDbSavedByObjectVersion
1070
     0
  0
VISUALSTYLE
  5
2C
102
{ACAD_REACTORS
330
2A
102
}
330
2A
100
AcDbVisualStyle
  2
FlatWithEdges
 70
     1
 71
     2
 72
     1
 73
     1
 90
        2
 40
-0.6
 41
30.0
 62
     5
 63
     7
 74
     1
 91
        4
 64
     7
 65
   257
 75
     1
175
     1
 42
1.0
 92
        0
 66
   257
 43
1.0
 76
     1
 77
     6
 78
     2
 67
     7
 79
     5
170
     0
171
     0
290
     0
174
     0
 93
       13
 44
0.0
173
     0
291
     1
 45
0.0
1001
ACAD
1000
AcDbSavedByObjectVersion
1070
     0
  0
VISUALSTYLE
  5
2D
102
{ACAD_REACTORS
330
2A
102
}
330
2A
100
AcDbVisualStyle
  2
Gouraud
 70
     2
 71
     2
 72
     2
 73
     1
 90
        2
 40
-0.6
 41
30.0
 62
     5
 63
     7
 74
     0
 91
        4
 64
     7
 65
   257
 75
     1
175
     1
 42
1.0
 92
        0
 66
     7
 43
1.0
 76
     1
 77
     6
 78
     2
 67
     7
 79
     5
170
     0
171
     0
290
     0
174
     0
 93
       13
 44
0.0
173
     0
291
     1
 45
0.0
1001
ACAD
1000
AcDbSavedByObjectVersion
1070
     0
  0
VISUALSTYLE
  5
2E
102
{ACAD_REACTORS
330
2A
102
}
330
2A
100
AcDbVisualStyle
  2
GouraudWithEdges
 70
     3
 71
     2
 72
     2
 73
     1
 90
        2
 40
-0.6
 41
30.0
 62
     5
 63
     7
 74
     1
 91
        4
 64
     7
 65
   257
 75
     1
175
     1
 42
1.0
 92
        0
 66
   257
 43
1.0
 76
     1
 77
     6
 78
     2
 67
     7
 79
     5
170
     0
171
     0
290
     0
174
     0
 93
       13
 44
0.0
173
     0
291
     1
 45
0.0
1001
ACAD
1000
AcDbSavedByObjectVersion
1070
     0
  0
VISUALSTYLE
  5
38
102
{ACAD_REACTORS
330
2A
102
}
330
2A
100
AcDbVisualStyle
  2
Linepattern
 70
    14
 71
     2
 72
     2
 73
     0
 90
        0
 40
-0.6
 41
-30.0
 62
     5
 63
     7
 74
     1
 91
        4
 64
     7
 65
   257
 75
     7
175
     7
 42
1.0
 92
        8
 66
     7
 43
1.0
 76
     1
 77
     6
 78
     2
 67
     7
 79
     5
170
     0
171
     0
290
     0
174
     0
 93
        1
 44
0.0
173
     0
291
     1
 45
0.0
1001
ACAD
1000
AcDbSavedByObjectVersion
1070
     0
  0
VISUALSTYLE
  5
33
102
{ACAD_REACTORS
330
2A
102
}
330
2A
100
AcDbVisualStyle
  2
Realistic
 70
     8
 71
     2
 72
     2
 73
     0
 90
        0
 40
-0.6
 41
-30.0
 62
     5
 63
     7
 74
     1
 91
        0
 64
     7
 65
   257
 75
     1
175
     1
 42
1.0
 92
        8
 66
     8
 43
1.0
 76
     1
 77
     6
 78
     2
 67
     7
 79
     5
170
     0
171
     0
290
     0
174
     0
 93
       13
 44
0.0
173
     0
291
     0
 45
0.0
1001
ACAD
1000
AcDbSavedByObjectVersion
1070
     0
  0
VISUALSTYLE
  5
37
102
{ACAD_REACTORS
330
2A
102
}
330
2A
100
AcDbVisualStyle
  2
Thicken
 70
    13
 71
     2
 72
     2
 73
     0
 90
        0
 40
-0.6
 41
-30.0
 62
     5
 63
     7
 74
     1
 91
        4
 64
     7
 65
   257
 75
     1
175
     1
 42
1.0
 92
       12
 66
     7
 43
1.0
 76
     1
 77
     6
 78
     2
 67
     7
 79
     5
170
     0
171
     0
290
     0
174
     0
 93
        1
 44
0.0
173
     0
291
     1
 45
0.0
1001
ACAD
1000
AcDbSavedByObjectVersion
1070
     0
  0
DICTIONARYVAR
  5
142
102
{ACAD_REACTORS
330
13D
102
}
330
13D
100
DictionaryVariables
280
     0
  1
1:1
  0
DICTIONARYVAR
  5
143
102
{ACAD_REACTORS
330
13D
102
}
330
13D
100
DictionaryVariables
280
     0
  1
2
  0
DICTIONARYVAR
  5
144
102
{ACAD_REACTORS
330
13D
102
}
330
13D
100
DictionaryVariables
280
     0
  1
1
  0
DICTIONARYVAR
  5
141
102
{ACAD_REACTORS
330
13D
102
}
330
13D
100
DictionaryVariables
280
     0
  1
80.000000
  0
DICTIONARYVAR
  5
140
102
{ACAD_REACTORS
330
13D
102
}
330
13D
100
DictionaryVariables
280
     0
  1
5.000000
  0
ENDSEC
  0
EOF
